<?xml version="1.0" encoding="UTF-8"?>
<svg version="1.1" xmlns="http://www.w3.org/2000/svg" width="269" height="65">
<path d="M0 0 C88.77 0 177.54 0 269 0 C269 21.45 269 42.9 269 65 C180.23 65 91.46 65 0 65 C0 43.55 0 22.1 0 0 Z " fill="#67BDBE" transform="translate(0,0)"/>
<path d="M0 0 C5.66173542 2.53689299 10.00052718 6.78621061 12.78125 12.34765625 C13.50016573 19.5984349 13.68791971 25.77007002 9.20703125 31.765625 C4.50647961 36.98130559 0.00509526 39.38634284 -6.96875 39.78515625 C-12.64125581 39.6414415 -16.84296886 37.95530224 -21.21875 34.34765625 C-25.60698478 28.96447564 -27.65282118 23.70125287 -27.5625 16.7578125 C-26.77341698 11.22526449 -23.27363513 7.05572423 -19.15625 3.47265625 C-13.05107489 -0.94385341 -7.40025013 -2.17577777 0 0 Z " fill="#44C0C1" transform="translate(42.21875,14.65234375)"/>
<path d="M0 0 C4.70588235 0.70588235 4.70588235 0.70588235 6 2 C6.07271741 4.35313555 6.08370868 6.70833668 6.0625 9.0625 C6.05347656 10.35285156 6.04445312 11.64320312 6.03515625 12.97265625 C6.02355469 13.97167969 6.01195312 14.97070312 6 16 C6.66 16 7.32 16 8 16 C7.814375 14.906875 7.62875 13.81375 7.4375 12.6875 C7 9 7 9 8 6 C12.29054482 2.48955424 15.69457942 2.6577148 21 3 C24 4 24 4 25 5 C25.99 5 26.98 5 28 5 C28 3.35 28 1.7 28 0 C29.32 0 30.64 0 32 0 C32.495 5.94 32.495 5.94 33 12 C33.66 11.34 34.32 10.68 35 10 C37.05859375 9.69921875 37.05859375 9.69921875 39.4375 9.6875 C40.61119141 9.66236328 40.61119141 9.66236328 41.80859375 9.63671875 C44.56299324 10.09333043 45.28895226 10.8256569 47 13 C47.34057617 15.0847168 47.34057617 15.0847168 47.29296875 17.44921875 C47.2784668 18.72055664 47.2784668 18.72055664 47.26367188 20.01757812 C47.23853516 20.89865234 47.21339844 21.77972656 47.1875 22.6875 C47.16719727 24.02651367 47.16719727 24.02651367 47.14648438 25.39257812 C47.11114079 27.59566166 47.06180493 29.79752582 47 32 C46.34 31.67 45.68 31.34 45 31 C44.93941406 29.78441406 44.87882812 28.56882812 44.81640625 27.31640625 C44.73201668 25.73175772 44.6473679 24.14712298 44.5625 22.5625 C44.52318359 21.76005859 44.48386719 20.95761719 44.44335938 20.13085938 C44.5945704 16.24760439 44.5945704 16.24760439 43 13 C37.67326964 12.66143172 37.67326964 12.66143172 33 15 C32.61605333 17.77262255 32.39657752 20.34323528 32.3125 23.125 C32.27833984 23.87910156 32.24417969 24.63320313 32.20898438 25.41015625 C32.12645722 27.27291201 32.06155289 29.13643326 32 31 C30.68 31.33 29.36 31.66 28 32 C27.67 31.34 27.34 30.68 27 30 C26.21625 30.721875 25.4325 31.44375 24.625 32.1875 C22.35126023 33.72467618 21.46082002 34.08868014 18.7265625 33.5625 C17.04034104 32.96673721 15.35814264 32.35949167 13.6796875 31.7421875 C9.36250842 30.54646735 5.35339007 31.23120984 1 32 C-1.38094585 28.42858123 -1.24558937 26.85273884 -1.23046875 22.6171875 C-1.22853516 21.36808594 -1.22660156 20.11898437 -1.22460938 18.83203125 C-1.21236328 17.52621094 -1.20011719 16.22039063 -1.1875 14.875 C-1.18685547 13.56144531 -1.18621094 12.24789063 -1.18554688 10.89453125 C-1.14015422 1.14015422 -1.14015422 1.14015422 0 0 Z " fill="#6CBCBC" transform="translate(137,17)"/>
<path d="M0 0 C3 0.25 3 0.25 5 2.25 C5.125 5.875 5.125 5.875 5 9.25 C6.11375 9.20875 7.2275 9.1675 8.375 9.125 C12 9.25 12 9.25 14 11.25 C14.25 14.25 14.25 14.25 14 17.25 C12 19.25 12 19.25 8.375 19.375 C7.26125 19.33375 6.1475 19.2925 5 19.25 C5.04125 20.36375 5.0825 21.4775 5.125 22.625 C5 26.25 5 26.25 3 28.25 C0.19015752 28.61023622 -1.38241919 28.63332602 -3.8125 27.125 C-5.49106106 24.47464043 -5.20450238 22.31753576 -5 19.25 C-5.928125 19.311875 -6.85625 19.37375 -7.8125 19.4375 C-11 19.25 -11 19.25 -12.875 18.0625 C-14.38332602 15.63241919 -14.36023622 14.05984248 -14 11.25 C-12 9.25 -12 9.25 -8.375 9.125 C-6.704375 9.186875 -6.704375 9.186875 -5 9.25 C-5.04125 8.13625 -5.0825 7.0225 -5.125 5.875 C-4.96926443 1.35866838 -4.55295726 0.3794131 0 0 Z " fill="#E5F4F6" transform="translate(35,19.75)"/>
<path d="M0 0 C1.65 0.33 3.3 0.66 5 1 C5 4.96 5 8.92 5 13 C8.96 13 12.92 13 17 13 C17 9.04 17 5.08 17 1 C18.65 0.67 20.3 0.34 22 0 C23 1 23 1 23.11352539 3.68383789 C23.10828857 4.85164795 23.10305176 6.01945801 23.09765625 7.22265625 C23.09443359 8.48271484 23.09121094 9.74277344 23.08789062 11.04101562 C23.07953403 12.38151109 23.07106907 13.72200588 23.0625 15.0625 C23.0574866 16.40689942 23.05292342 17.7513006 23.04882812 19.09570312 C23.03699488 22.39717941 23.02050971 25.69856803 23 29 C21.34385343 29.38218767 19.67542976 29.71395102 18 30 C17 29 17 29 16.90234375 26.49609375 C16.93489583 23.6640625 16.96744792 20.83203125 17 18 C13.04 18 9.08 18 5 18 C5 21.63 5 25.26 5 29 C3.68 29.33 2.36 29.66 1 30 C-1 28 -1 28 -1.24291992 25.31030273 C-1.23881104 24.19598877 -1.23470215 23.0816748 -1.23046875 21.93359375 C-1.22853516 20.72638672 -1.22660156 19.51917969 -1.22460938 18.27539062 C-1.21236328 17.00888672 -1.20011719 15.74238281 -1.1875 14.4375 C-1.18685547 13.16712891 -1.18621094 11.89675781 -1.18554688 10.58789062 C-1.14010053 1.14010053 -1.14010053 1.14010053 0 0 Z " fill="#EAF8F6" transform="translate(67,19)"/>
<path d="M0 0 C0.66 0 1.32 0 2 0 C2.91956156 13.40516411 2.91956156 13.40516411 -1.57421875 19.41796875 C-6.27477039 24.63364934 -10.77615474 27.03868659 -17.75 27.4375 C-23.42804495 27.31037959 -27.54447409 25.46641731 -32 22 C-34.64600271 18.90224073 -35.89746898 17.17910672 -36.25 13.125 C-36.1675 12.42375 -36.085 11.7225 -36 11 C-35.67 11.99 -35.34 12.98 -35 14 C-34.01 14 -33.02 14 -32 14 C-31.67 13.01 -31.34 12.02 -31 11 C-28.36 11.33 -25.72 11.66 -23 12 C-22.690625 13.134375 -22.38125 14.26875 -22.0625 15.4375 C-21.37075469 18.78775099 -21.37075469 18.78775099 -20 20 C-17.5 20.16666667 -17.5 20.16666667 -15 20 C-13.03177114 18.03177114 -13.33751619 14.65191291 -13 12 C-11.88625 11.87625 -10.7725 11.7525 -9.625 11.625 C-5.96896323 11.3534187 -5.96896323 11.3534187 -4 9 C-2.92924765 5.41945345 -2.92924765 5.41945345 -4 2 C-2.68 2 -1.36 2 0 2 C0 1.34 0 0.68 0 0 Z " fill="#347590" transform="translate(53,27)"/>
<path d="M0 0 C5.08797824 3.06807272 9.31028541 7.90349404 11.5 13.4375 C12.3646546 21.03841719 12.32722112 28.21890338 7.5 34.4375 C2.46164407 39.89987598 -3.3609021 43.50059889 -10.9375 43.8125 C-15.64163375 43.64305436 -19.26421316 42.47975437 -23.5 40.4375 C-23.995 38.9525 -23.995 38.9525 -24.5 37.4375 C-25.12519531 37.12683594 -25.75039063 36.81617188 -26.39453125 36.49609375 C-28.95878473 35.20683087 -29.7411927 33.9500537 -31.1875 31.5 C-31.60386719 30.81035156 -32.02023438 30.12070312 -32.44921875 29.41015625 C-35.01982083 24.58430475 -35.27912989 19.55401956 -33.96875 14.3125 C-31.53598313 7.33151682 -27.8541119 2.83392456 -21.26171875 -0.609375 C-14.57761258 -2.91619523 -6.51747754 -2.87719738 0 0 Z M-27.375 8.5 C-31.27574325 13.8922039 -32.38218203 17.81568923 -31.5 24.4375 C-29.34826115 30.95087165 -25.48602476 35.42366935 -19.8125 39.25 C-13.84056508 41.39088233 -8.02170882 41.44837128 -2.1875 38.8125 C2.79885681 35.97178763 6.34805355 31.77961267 8.5 26.4375 C9.14317467 20.64892801 9.35005993 15.26839832 6.875 9.9375 C1.42879091 4.20464833 -3.19165112 0.47113322 -11.3125 0 C-18.25361806 0.15493567 -22.9007538 3.37353132 -27.375 8.5 Z " fill="#D7F6F7" transform="translate(46.5,13.5625)"/>
<path d="M0 0 C0.95648438 -0.03738281 1.91296875 -0.07476563 2.8984375 -0.11328125 C5.625 0.3125 5.625 0.3125 7.9609375 1.78515625 C10.4061581 5.49890679 10.06213397 8.72243139 9.875 13.0625 C9.85695312 13.85527344 9.83890625 14.64804687 9.8203125 15.46484375 C9.77333082 17.41458348 9.70159044 19.36369878 9.625 21.3125 C7.29166667 21.3125 4.95833333 21.3125 2.625 21.3125 C1.965 21.6425 1.305 21.9725 0.625 22.3125 C-2.97941333 22.70428406 -4.7589863 22.7231758 -7.8125 20.6875 C-9.375 18.3125 -9.375 18.3125 -9.375 15.25 C-8.20866851 11.82390126 -7.58826977 10.91913489 -4.375 9.3125 C1.99085366 7.99542683 1.99085366 7.99542683 4.625 9.3125 C3.965 7.9925 3.305 6.6725 2.625 5.3125 C-0.345 5.3125 -3.315 5.3125 -6.375 5.3125 C-6.705 3.9925 -7.035 2.6725 -7.375 1.3125 C-4.81683084 0.03341542 -2.85652006 0.07275319 0 0 Z " fill="#E7FAF9" transform="translate(123.375,26.6875)"/>
<path d="M0 0 C2.62169359 0.60599803 3.69776158 1.21575468 5.5078125 3.17578125 C7.3828125 6.55078125 7.3828125 6.55078125 7.3828125 12.55078125 C2.4328125 12.55078125 -2.5171875 12.55078125 -7.6171875 12.55078125 C-6.6271875 14.20078125 -5.6371875 15.85078125 -4.6171875 17.55078125 C-2.34386951 18.15247571 -2.34386951 18.15247571 0.0703125 17.86328125 C0.87855469 17.81816406 1.68679687 17.77304687 2.51953125 17.7265625 C3.13441406 17.66855469 3.74929687 17.61054687 4.3828125 17.55078125 C4.3828125 18.87078125 4.3828125 20.19078125 4.3828125 21.55078125 C1.16549699 23.159439 -2.1279487 23.01774258 -5.6171875 22.55078125 C-9.02866504 20.84504248 -11.00066245 19.51577698 -13.0546875 16.30078125 C-14.13591957 11.01475779 -13.62158104 7.10597125 -10.6796875 2.55078125 C-6.92309533 0.09749657 -4.42685713 -0.23125373 0 0 Z " fill="#EAF9F9" transform="translate(105.6171875,26.44921875)"/>
<path d="M0 0 C2.5625 1.5625 2.5625 1.5625 4 4 C4.3125 7.6875 4.3125 7.6875 4 11 C3 12 3 12 -0.37890625 12.09765625 C-1.77347077 12.09098369 -3.16801743 12.07902532 -4.5625 12.0625 C-5.27341797 12.05798828 -5.98433594 12.05347656 -6.71679688 12.04882812 C-8.47790013 12.03700864 -10.23896036 12.01907263 -12 12 C-10.75023244 15.65316671 -10.32901247 16.78065836 -7 19 C-3.15110517 19.20993972 0.31233808 19.18005182 4 18 C4 18.66 4 19.32 4 20 C0.29118786 22.47254143 -3.69353488 22.69348643 -8 22 C-11.02899973 20.22210886 -12.5538292 18.73009767 -14.375 15.75 C-15.24373563 11.92756322 -15.1437504 8.75695496 -14 5 C-10.3409874 -0.4885189 -6.1883013 -1.22380585 0 0 Z " fill="#DAF9FB" transform="translate(235,27)"/>
<path d="M0 0 C0.86367187 -0.03738281 1.72734375 -0.07476563 2.6171875 -0.11328125 C5.125 0.3125 5.125 0.3125 7.4296875 1.78515625 C9.91797224 5.49464986 9.56286018 8.70558895 9.375 13.0625 C9.35695312 13.85527344 9.33890625 14.64804687 9.3203125 15.46484375 C9.27333082 17.41458348 9.20159044 19.36369878 9.125 21.3125 C8.465 21.3125 7.805 21.3125 7.125 21.3125 C7.125 20.6525 7.125 19.9925 7.125 19.3125 C6.25875 19.8075 5.3925 20.3025 4.5 20.8125 C0.9589227 22.38631214 -1.05857148 22.82135714 -4.875 22.3125 C-6.75 21.1875 -6.75 21.1875 -7.875 19.3125 C-8.29978586 15.23455575 -8.18782587 13.78173881 -5.875 10.3125 C-2.86009443 9.30753148 -0.83318308 9.20914697 2.3125 9.25 C3.21355469 9.25902344 4.11460937 9.26804687 5.04296875 9.27734375 C5.73003906 9.28894531 6.41710937 9.30054688 7.125 9.3125 C6.795 7.3325 6.465 5.3525 6.125 3.3125 C1.835 3.3125 -2.455 3.3125 -6.875 3.3125 C-6.875 2.6525 -6.875 1.9925 -6.875 1.3125 C-4.44538821 0.0976941 -2.71115884 0.07642733 0 0 Z " fill="#CEF2F4" transform="translate(195.875,26.6875)"/>
<path d="M0 0 C0 0.33 0 0.66 0 1 C-3.63 1.33 -7.26 1.66 -11 2 C-10.67 2.99 -10.34 3.98 -10 5 C-9.37351562 4.97679687 -8.74703125 4.95359375 -8.1015625 4.9296875 C-7.28429687 4.91164063 -6.46703125 4.89359375 -5.625 4.875 C-4.81289062 4.85179687 -4.00078125 4.82859375 -3.1640625 4.8046875 C-1 5 -1 5 1 7 C1 7.99 1 8.98 1 10 C0.39671875 10.02578125 -0.2065625 10.0515625 -0.828125 10.078125 C-4.65821171 10.34993761 -7.31015729 10.54571334 -10.5625 12.6875 C-12.38720463 15.62289441 -12.30859658 17.60543766 -12 21 C-13.32 21 -14.64 21 -16 21 C-16.33 20.34 -16.66 19.68 -17 19 C-17.92232422 19.05220703 -17.92232422 19.05220703 -18.86328125 19.10546875 C-19.67152344 19.13253906 -20.47976562 19.15960938 -21.3125 19.1875 C-22.51326172 19.23970703 -22.51326172 19.23970703 -23.73828125 19.29296875 C-26 19 -26 19 -27.79296875 17.67578125 C-29 16 -29 16 -29 13 C-24.05 13 -19.1 13 -14 13 C-15.34180694 6.46362008 -15.34180694 6.46362008 -19 1 C-18.29875 1.04125 -17.5975 1.0825 -16.875 1.125 C-13.94805957 1.14773206 -13.94805957 1.14773206 -11.1875 -0.0625 C-7.03087146 -1.2850378 -4.24607834 -0.73208247 0 0 Z " fill="#7FBFBF" transform="translate(127,26)"/>
<path d="M0 0 C1.65 0.33 3.3 0.66 5 1 C5.33 10.9 5.66 20.8 6 31 C4.35 31.33 2.7 31.66 1 32 C-1.38094585 28.42858123 -1.24558937 26.85273884 -1.23046875 22.6171875 C-1.22853516 21.36808594 -1.22660156 20.11898437 -1.22460938 18.83203125 C-1.21236328 17.52621094 -1.20011719 16.22039063 -1.1875 14.875 C-1.18685547 13.56144531 -1.18621094 12.24789063 -1.18554688 10.89453125 C-1.14015422 1.14015422 -1.14015422 1.14015422 0 0 Z " fill="#DEF1F0" transform="translate(137,17)"/>
<path d="M0 0 C0.66 0 1.32 0 2 0 C2.510334 7.43953567 2.82975527 13.28079366 -1.61328125 19.51171875 C-3 21 -3 21 -6 23 C-6 21.68 -6 20.36 -6 19 C-6.61875 19.185625 -7.2375 19.37125 -7.875 19.5625 C-10 20 -10 20 -12 19 C-12 19.66 -12 20.32 -12 21 C-12.99 20.67 -13.98 20.34 -15 20 C-14.67 19.67 -14.34 19.34 -14 19 C-13.63239269 16.67182036 -13.29758419 14.3381615 -13 12 C-11.329375 11.814375 -11.329375 11.814375 -9.625 11.625 C-5.96896323 11.3534187 -5.96896323 11.3534187 -4 9 C-2.92924765 5.41945345 -2.92924765 5.41945345 -4 2 C-2.68 2 -1.36 2 0 2 C0 1.34 0 0.68 0 0 Z " fill="#26859E" transform="translate(53,27)"/>
<path d="M0 0 C0.33 0 0.66 0 1 0 C1 1.98 1 3.96 1 6 C1.66 6 2.32 6 3 6 C1.78322226 12.48948129 -1.03672614 16.64177286 -6 21 C-11.65652718 24.67828816 -17.32544043 25.98882364 -24 25 C-26.94605159 24.26224089 -29.22872599 23.33614997 -32 22 C-32.33 21.01 -32.66 20.02 -33 19 C-34.31647119 18.30062468 -35.65022151 17.63270867 -37 17 C-37.33 16.34 -37.66 15.68 -38 15 C-37.34 14.34 -36.68 13.68 -36 13 C-35.773125 13.61875 -35.54625 14.2375 -35.3125 14.875 C-33.59251083 17.65974437 -32.05884971 17.98038343 -29 19 C-28.07574219 19.51046875 -28.07574219 19.51046875 -27.1328125 20.03125 C-22.63891555 22.07243396 -17.35747791 21.74425497 -12.7109375 20.27734375 C-8.40076982 18.28368941 -5.62719222 16.04183419 -3 12 C-2.608125 11.401875 -2.21625 10.80375 -1.8125 10.1875 C-0.57316204 6.85082088 -0.35374982 3.53749824 0 0 Z " fill="#C8E5EA" transform="translate(55,32)"/>
<path d="M0 0 C1.21816406 0.03480469 1.21816406 0.03480469 2.4609375 0.0703125 C3.68683594 0.09738281 3.68683594 0.09738281 4.9375 0.125 C5.87722656 0.15980469 5.87722656 0.15980469 6.8359375 0.1953125 C6.8359375 0.8553125 6.8359375 1.5153125 6.8359375 2.1953125 C7.4959375 2.1953125 8.1559375 2.1953125 8.8359375 2.1953125 C9.1659375 4.8353125 9.4959375 7.4753125 9.8359375 10.1953125 C6.02132112 11.99042609 3.05005041 12.73328436 -1.1640625 12.1953125 C-3.6015625 10.5703125 -3.6015625 10.5703125 -5.1640625 8.1953125 C-5.00124899 4.12497482 -4.72368256 0.42632514 0 0 Z " fill="#EAF9F6" transform="translate(119.1640625,36.8046875)"/>
<path d="M0 0 C0.66 0 1.32 0 2 0 C2.33 3.96 2.66 7.92 3 12 C3.66 11.34 4.32 10.68 5 10 C7.05859375 9.69921875 7.05859375 9.69921875 9.4375 9.6875 C10.61119141 9.66236328 10.61119141 9.66236328 11.80859375 9.63671875 C14.56299324 10.09333043 15.28895226 10.8256569 17 13 C17.34057617 15.0847168 17.34057617 15.0847168 17.29296875 17.44921875 C17.28330078 18.29677734 17.27363281 19.14433594 17.26367188 20.01757812 C17.23853516 20.89865234 17.21339844 21.77972656 17.1875 22.6875 C17.16719727 24.02651367 17.16719727 24.02651367 17.14648438 25.39257812 C17.11114079 27.59566166 17.06180493 29.79752582 17 32 C16.34 31.67 15.68 31.34 15 31 C14.93941406 29.78441406 14.87882813 28.56882812 14.81640625 27.31640625 C14.73201668 25.73175772 14.6473679 24.14712298 14.5625 22.5625 C14.52318359 21.76005859 14.48386719 20.95761719 14.44335938 20.13085938 C14.5945704 16.24760439 14.5945704 16.24760439 13 13 C7.67326964 12.66143172 7.67326964 12.66143172 3 15 C2.66887699 17.74568371 2.48769486 20.31134373 2.4375 23.0625 C2.3751661 25.73362309 2.23327167 28.33361621 2 31 C1.34 31.33 0.68 31.66 0 32 C0 21.44 0 10.88 0 0 Z " fill="#DAFAFA" transform="translate(167,17)"/>
<path d="M0 0 C1.32 0 2.64 0 4 0 C4 7.59 4 15.18 4 23 C3.67 23 3.34 23 3 23 C2.67 20.69 2.34 18.38 2 16 C1.01 16.33 0.02 16.66 -1 17 C-3.06145107 17.068991 -5.12501401 17.08467727 -7.1875 17.0625 C-8.81751953 17.04896484 -8.81751953 17.04896484 -10.48046875 17.03515625 C-11.31191406 17.02355469 -12.14335938 17.01195313 -13 17 C-13 15.68 -13 14.36 -13 13 C-9.04 13 -5.08 13 -1 13 C-1.020625 11.040625 -1.04125 9.08125 -1.0625 7.0625 C-1.08377188 5.04167124 -1.07244053 3.01964199 -1 1 C-0.67 0.67 -0.34 0.34 0 0 Z " fill="#F4FDFB" transform="translate(85,19)"/>
<path d="M0 0 C0.99 0.33 1.98 0.66 3 1 C3 1.66 3 2.32 3 3 C1.82630859 2.98259766 1.82630859 2.98259766 0.62890625 2.96484375 C-0.38300781 2.95582031 -1.39492187 2.94679688 -2.4375 2.9375 C-3.95150391 2.92009766 -3.95150391 2.92009766 -5.49609375 2.90234375 C-7.94021067 2.71387324 -7.94021067 2.71387324 -9 4 C-9.50042146 6.91538029 -9.50042146 6.91538029 -9 10 C-6.78563576 11.79917095 -4.5632616 12.77765989 -1.921875 13.8203125 C0.23075245 14.74176094 2.10490833 15.62135363 4 17 C5.3125 20.4375 5.3125 20.4375 5 24 C3.04843889 26.95881846 1.62413374 28.65687315 -1.94140625 29.41015625 C-6.3655086 29.60323852 -9.47883699 28.86094494 -13 26 C-13 25.34 -13 24.68 -13 24 C-12.154375 24.33 -11.30875 24.66 -10.4375 25 C-6.74602431 26.07388384 -3.82455319 26.2941964 0 26 C2.34973818 24.10244856 2.34973818 24.10244856 2.125 20.875 C2.08375 19.92625 2.0425 18.9775 2 18 C1.40832031 17.82984375 0.81664062 17.6596875 0.20703125 17.484375 C-8.79310345 14.72413793 -8.79310345 14.72413793 -12 11 C-12.63210717 7.06688873 -12.60020266 4.97532932 -10.5 1.5625 C-6.80761015 -0.74524365 -4.32676915 -0.34339438 0 0 Z " fill="#DEFAFB" transform="translate(158,20)"/>
<path d="M0 0 C3.64939813 0.91234953 5.71592813 1.72321202 8.4375 4.375 C10 7 10 7 9.875 9.1875 C9 11 9 11 7 13 C6.35232207 15.57061311 6.35232207 15.57061311 6 18 C5.67 18 5.34 18 5 18 C4.34 16.02 3.68 14.04 3 12 C0.69 11.67 -1.62 11.34 -4 11 C-4 8.36 -4 5.72 -4 3 C-2.68 3 -1.36 3 0 3 C0 2.01 0 1.02 0 0 Z " fill="#39BAC0" transform="translate(44,18)"/>
<path d="M0 0 C0.94875 0.04125 1.8975 0.0825 2.875 0.125 C4.20433579 5.56319188 4.20433579 5.56319188 2.8125 7.9375 C0.23430766 9.5176824 -2.1462021 9.79402246 -5.125 10.125 C-5.125 11.115 -5.125 12.105 -5.125 13.125 C-6.775 13.125 -8.425 13.125 -10.125 13.125 C-10.455 14.775 -10.785 16.425 -11.125 18.125 C-12.115 17.465 -13.105 16.805 -14.125 16.125 C-14.4375 13.625 -14.4375 13.625 -14.125 11.125 C-12.125 9.125 -12.125 9.125 -8.5 9 C-6.829375 9.061875 -6.829375 9.061875 -5.125 9.125 C-5.16625 8.01125 -5.2075 6.8975 -5.25 5.75 C-5.09146151 1.15238393 -4.65510388 0.18620416 0 0 Z " fill="#CAF5F7" transform="translate(35.125,19.875)"/>
<path d="M0 0 C0.66 0 1.32 0 2 0 C2.33 2.97 2.66 5.94 3 9 C4.32 9 5.64 9 7 9 C7.33 8.01 7.66 7.02 8 6 C11.63 6 15.26 6 19 6 C19 6.66 19 7.32 19 8 C18.31292969 8.06058594 17.62585938 8.12117188 16.91796875 8.18359375 C16.01691406 8.26738281 15.11585937 8.35117187 14.1875 8.4375 C12.84751953 8.55931641 12.84751953 8.55931641 11.48046875 8.68359375 C8.87256441 8.93489767 8.87256441 8.93489767 6 10 C4.00184625 14.99538436 3.65005553 18.79307134 5 24 C6.92393551 26.8874873 6.92393551 26.8874873 9 29 C6.61435923 28.42415568 4.33317216 27.77772405 2 27 C1.67 28.32 1.34 29.64 1 31 C0.34 30.67 -0.32 30.34 -1 30 C-0.67 29.67 -0.34 29.34 0 29 C0.08775605 26.85441173 0.10695219 24.70595579 0.09765625 22.55859375 C0.09443359 21.25341797 0.09121094 19.94824219 0.08789062 18.60351562 C0.07953401 17.2148431 0.07106905 15.82617123 0.0625 14.4375 C0.05748666 13.04492344 0.05292347 11.65234519 0.04882812 10.25976562 C0.03699434 6.8398013 0.0205088 3.41992156 0 0 Z M-4 31 C-3.01 31.33 -2.02 31.66 -1 32 C-1.99 32 -2.98 32 -4 32 C-4 31.67 -4 31.34 -4 31 Z " fill="#79B9BA" transform="translate(89,19)"/>
<path d="M0 0 C0.66 1.32 1.32 2.64 2 4 C3.32 4 4.64 4 6 4 C6 4.66 6 5.32 6 6 C3.69 6 1.38 6 -1 6 C-1.33 7.65 -1.66 9.3 -2 11 C-2.99 11.33 -3.98 11.66 -5 12 C-5.66 10.35 -6.32 8.7 -7 7 C-9.31 6.67 -11.62 6.34 -14 6 C-14 5.34 -14 4.68 -14 4 C-12.35 4 -10.7 4 -9 4 C-9 3.01 -9 2.02 -9 1 C-6.04335481 -0.4783226 -3.25770263 -0.06032783 0 0 Z " fill="#417C87" transform="translate(39,29)"/>
<path d="M0 0 C2.59341352 0.07530783 3.80569388 0.16002137 6.0625 1.5 C7.0625 3.3125 7.0625 3.3125 7.0625 8.3125 C2.4425 8.3125 -2.1775 8.3125 -6.9375 8.3125 C-5.62650804 0.44654826 -5.62650804 0.44654826 0 0 Z " fill="#84BCBC" transform="translate(229.9375,28.6875)"/>
<path d="M0 0 C3.125 -0.1875 3.125 -0.1875 6 0 C6.33 1.65 6.66 3.3 7 5 C4.67184953 5.69349163 2.34263431 6.35835935 0 7 C-1.0828125 7.30357422 -1.0828125 7.30357422 -2.1875 7.61328125 C-8.59176095 9.24770201 -13.6483566 9.11721447 -20 7 C-20.6875 4.9375 -20.6875 4.9375 -21 3 C-20.34 3.495 -19.68 3.99 -19 4.5 C-14.47533323 6.76233339 -10.47674372 6.49534874 -5.5 5.5 C-5.005 5.335 -4.51 5.17 -4 5 C-4 4.34 -4 3.68 -4 3 C-4.515625 3.33 -5.03125 3.66 -5.5625 4 C-8.78026512 5.32010877 -11.5570528 5.13242105 -15 5 C-15 4.67 -15 4.34 -15 4 C-6.57142857 1.57142857 -6.57142857 1.57142857 -2 3 C-1.34 2.01 -0.68 1.02 0 0 Z " fill="#7CB8BA" transform="translate(243,42)"/>
<path d="M0 0 C-0.48219178 5.42465753 -0.48219178 5.42465753 -2.6875 7.875 C-5.63329909 9.30809145 -7.76119319 9.28163537 -11 9 C-11.66 8.67 -12.32 8.34 -13 8 C-13 6.02 -13 4.04 -13 2 C-8.50343896 -0.24828052 -4.92127034 -0.16682272 0 0 Z " fill="#71BCBB" transform="translate(203,38)"/>
<path d="M0 0 C-0.66 1.32 -1.32 2.64 -2 4 C-0.35 4.33 1.3 4.66 3 5 C3.33 6.32 3.66 7.64 4 9 C-0.33333333 9 -4.66666667 9 -9 9 C-9.66 9.99 -10.32 10.98 -11 12 C-11.4247346 7.6677071 -11.47048413 5.65037512 -8.875 2.0625 C-5.56851204 -0.30954571 -3.9760803 -0.46233492 0 0 Z " fill="#F1FDFD" transform="translate(104,27)"/>
<path d="M0 0 C0.33 0 0.66 0 1 0 C1.02505615 0.83772949 1.0501123 1.67545898 1.07592773 2.53857422 C1.17100357 5.64352256 1.27024025 8.74830181 1.37231445 11.85302734 C1.43698251 13.85894807 1.49683106 15.86502228 1.55664062 17.87109375 C1.61948242 19.75634766 1.61948242 19.75634766 1.68359375 21.6796875 C1.72025146 22.84226074 1.75690918 24.00483398 1.79467773 25.20263672 C1.81821659 27.9535501 1.81821659 27.9535501 3 30 C5.52733235 30.65555119 5.52733235 30.65555119 8 31 C7.67 31.66 7.34 32.32 7 33 C5.4221875 32.7215625 5.4221875 32.7215625 3.8125 32.4375 C0.42880118 32.04920669 -1.76425888 32.11752515 -5 33 C-5 32.34 -5 31.68 -5 31 C-4.34 30.67 -3.68 30.34 -3 30 C-3 23.73 -3 17.46 -3 11 C-2.01 11 -1.02 11 0 11 C0 7.37 0 3.74 0 0 Z " fill="#76B8BA" transform="translate(135,18)"/>
<path d="M0 0 C0.33 0.99 0.66 1.98 1 3 C1.99 3 2.98 3 4 3 C4.33 2.01 4.66 1.02 5 0 C5.66 0.33 6.32 0.66 7 1 C7 1.33 7 1.66 7 2 C8.65 2.33 10.3 2.66 12 3 C12 5.97 12 8.94 12 12 C9.8125 12.8125 9.8125 12.8125 7 13 C4.07943633 10.55487693 2.11104061 8.16656091 0 5 C-0.125 2.3125 -0.125 2.3125 0 0 Z " fill="#2991A5" transform="translate(17,38)"/>
<path d="M0 0 C0.66 0 1.32 0 2 0 C2.04938628 4.23582327 2.08571263 8.47149465 2.10986328 12.70751953 C2.11992963 14.14895547 2.1335838 15.59037095 2.15087891 17.03173828 C2.17510012 19.10193934 2.18647641 21.17187076 2.1953125 23.2421875 C2.20578613 24.4885498 2.21625977 25.73491211 2.22705078 27.01904297 C2 30 2 30 0 32 C-0.33 31.34 -0.66 30.68 -1 30 C-2.3303125 31.0209375 -2.3303125 31.0209375 -3.6875 32.0625 C-7 34 -7 34 -9.875 33.75 C-10.57625 33.5025 -11.2775 33.255 -12 33 C-12 32.67 -12 32.34 -12 32 C-10.88625 31.731875 -9.7725 31.46375 -8.625 31.1875 C-4.78159049 30.34190981 -4.78159049 30.34190981 -3 27 C-2.61500109 25.34450469 -2.27206865 23.6777567 -2 22 C-1.67 22 -1.34 22 -1 22 C-0.67 14.74 -0.34 7.48 0 0 Z " fill="#88C0C2" transform="translate(165,17)"/>
<path d="M0 0 C0 0.66 0 1.32 0 2 C0.99 2.33 1.98 2.66 3 3 C2.34 3 1.68 3 1 3 C1 3.99 1 4.98 1 6 C0.01 6.495 0.01 6.495 -1 7 C-0.835 7.70125 -0.67 8.4025 -0.5 9.125 C0.02371746 12.13637537 0 14.95041102 0 18 C0.33 18.66 0.66 19.32 1 20 C-1.475 19.01 -1.475 19.01 -4 18 C-4.33 18.66 -4.66 19.32 -5 20 C-5.33 13.73 -5.66 7.46 -6 1 C-4 0 -4 0 0 0 Z " fill="#72BBBD" transform="translate(189,28)"/>
<path d="M0 0 C1.89453125 1.52734375 1.89453125 1.52734375 3 3 C2.67 3.99 2.34 4.98 2 6 C1.4328125 5.67644531 0.865625 5.35289063 0.28125 5.01953125 C-3.40247575 3.37320861 -7.03722227 3.49364507 -11 4 C-13.22743787 5.41977909 -13.22743787 5.41977909 -15 7 C-17.75 7.1875 -17.75 7.1875 -20 7 C-18.94394445 3.83183335 -17.95367039 2.57766944 -15.15234375 0.796875 C-10.40353763 -0.96130367 -4.95317672 -0.73404889 0 0 Z " fill="#34CCCC" transform="translate(42,16)"/>
<path d="M0 0 C1 2 1 2 0.8125 4 C0 6 0 6 -1.5625 7.3125 C-5.16966963 8.32990682 -8.41722347 8.08776442 -12 7 C-14 4.9375 -14 4.9375 -15 3 C-12.03 3 -9.06 3 -6 3 C-6 2.34 -6 1.68 -6 1 C-4.02 0.67 -2.04 0.34 0 0 Z " fill="#165A77" transform="translate(47,45)"/>
<path d="M0 0 C1 2 1 2 0.9375 4.375 C-0.41749235 8.16897859 -2.52106804 9.09643345 -6 11 C-14.33217166 14.26091955 -23.62885241 14.11484561 -32 11 C-32 10.34 -32 9.68 -32 9 C-30.2984375 9.495 -30.2984375 9.495 -28.5625 10 C-20.44296642 11.95496679 -14.67192974 11.55062847 -7.2421875 7.51171875 C-4.08713835 5.38453404 -2.16988319 3.11016591 0 0 Z " fill="#70AEAD" transform="translate(55,45)"/>
<path d="M0 0 C0.66 0.66 1.32 1.32 2 2 C5.59679066 1.67673447 5.59679066 1.67673447 9 1 C9.33 1.99 9.66 2.98 10 4 C10.66 4.33 11.32 4.66 12 5 C10.63016497 8.16115776 10.0109362 8.9927092 7 11 C7 9.68 7 8.36 7 7 C6.38125 7.185625 5.7625 7.37125 5.125 7.5625 C3 8 3 8 1 7 C1 7.66 1 8.32 1 9 C0.01 8.67 -0.98 8.34 -2 8 C-1.67 7.67 -1.34 7.34 -1 7 C-0.63239269 4.67182036 -0.29758419 2.3381615 0 0 Z " fill="#2E6D85" transform="translate(40,39)"/>
<path d="M0 0 C1.32 0 2.64 0 4 0 C4 6.6 4 13.2 4 20 C3.34 18.68 2.68 17.36 2 16 C1.34 16.33 0.68 16.66 0 17 C0 11.39 0 5.78 0 0 Z " fill="#F7FDFD" transform="translate(137,17)"/>
<path d="M0 0 C0.763125 0.20625 1.52625 0.4125 2.3125 0.625 C2.3125 1.285 2.3125 1.945 2.3125 2.625 C1.178125 2.934375 0.04375 3.24375 -1.125 3.5625 C-4.47525099 4.25424531 -4.47525099 4.25424531 -5.6875 5.625 C-5.92409614 9.05001072 -6.08423972 12.46780568 -6.20507812 15.8984375 C-6.29660491 17.81186533 -6.48489852 19.72012839 -6.6875 21.625 C-7.3475 21.955 -8.0075 22.285 -8.6875 22.625 C-8.6875 15.365 -8.6875 8.105 -8.6875 0.625 C-7.6975 0.955 -6.7075 1.285 -5.6875 1.625 C-2.6875 -0.375 -2.6875 -0.375 0 0 Z " fill="#DCF9FA" transform="translate(218.6875,26.375)"/>
<path d="M0 0 C1.43655854 -0.08131463 2.8744483 -0.13933559 4.3125 -0.1875 C5.51326172 -0.23970703 5.51326172 -0.23970703 6.73828125 -0.29296875 C9.57937035 0.07504797 10.25434141 0.76902356 12 3 C12.34057617 5.0847168 12.34057617 5.0847168 12.29296875 7.44921875 C12.28330078 8.29677734 12.27363281 9.14433594 12.26367188 10.01757812 C12.23853516 10.89865234 12.21339844 11.77972656 12.1875 12.6875 C12.17396484 13.58017578 12.16042969 14.47285156 12.14648438 15.39257812 C12.11114079 17.59566166 12.06180493 19.79752582 12 22 C11.34 21.67 10.68 21.34 10 21 C9.93941406 19.78441406 9.87882813 18.56882812 9.81640625 17.31640625 C9.73201668 15.73175772 9.6473679 14.14712298 9.5625 12.5625 C9.52318359 11.76005859 9.48386719 10.95761719 9.44335938 10.13085938 C9.5945704 6.24760439 9.5945704 6.24760439 8 3 C5.32941149 2.85884839 2.67567762 2.95752893 0 3 C0 2.01 0 1.02 0 0 Z " fill="#CEF1F2" transform="translate(172,27)"/>
<path d="M0 0 C0.33 0.66 0.66 1.32 1 2 C1.66 2.33 2.32 2.66 3 3 C2.01 3 1.02 3 0 3 C-0.33 9.6 -0.66 16.2 -1 23 C-1.33 23 -1.66 23 -2 23 C-2.33 16.73 -2.66 10.46 -3 4 C-4.51421001 5.51421001 -4.21309856 6.92472768 -4.31640625 9.03515625 C-4.37924805 10.24848633 -4.37924805 10.24848633 -4.44335938 11.48632812 C-4.48267578 12.33646484 -4.52199219 13.18660156 -4.5625 14.0625 C-4.60568359 14.91650391 -4.64886719 15.77050781 -4.69335938 16.65039062 C-4.79976702 18.76672037 -4.90041731 20.88333813 -5 23 C-5.33 23 -5.66 23 -6 23 C-6.06058594 21.80761719 -6.12117187 20.61523438 -6.18359375 19.38671875 C-6.26801149 17.82030075 -6.35265887 16.25389512 -6.4375 14.6875 C-6.47681641 13.90181641 -6.51613281 13.11613281 -6.55664062 12.30664062 C-6.59853516 11.54931641 -6.64042969 10.79199219 -6.68359375 10.01171875 C-6.73858032 8.96697388 -6.73858032 8.96697388 -6.79467773 7.90112305 C-6.95581153 5.7783428 -6.95581153 5.7783428 -8 3 C-6.68 3 -5.36 3 -4 3 C-4 2.34 -4 1.68 -4 1 C-2.68 0.67 -1.36 0.34 0 0 Z " fill="#83BFC0" transform="translate(211,25)"/>
<path d="M0 0 C4.68 3.36 4.68 3.36 6 6 C6 8.78463018 4.6987043 9.84395224 3 12 C2.28566879 14.64934822 2.28566879 14.64934822 2 17 C1.67 17 1.34 17 1 17 C0.34 15.02 -0.32 13.04 -1 11 C-3.97 10.505 -3.97 10.505 -7 10 C-7 8.35 -7 6.7 -7 5 C-6.67 5.99 -6.34 6.98 -6 8 C-3.03 7.34 -0.06 6.68 3 6 C2.2575 5.071875 2.2575 5.071875 1.5 4.125 C0 2 0 2 0 0 Z " fill="#3EA5B0" transform="translate(48,19)"/>
<path d="M0 0 C0.99 0 1.98 0 3 0 C6.18513349 3.89294093 6.3785594 7.0787278 6 12 C5 13 5 13 1.62109375 13.09765625 C0.22652923 13.09098369 -1.16801743 13.07902532 -2.5625 13.0625 C-3.27341797 13.05798828 -3.98433594 13.05347656 -4.71679688 13.04882812 C-6.47790013 13.03700864 -8.23896036 13.01907263 -10 13 C-9.2236068 16.0745356 -9.2236068 16.0745356 -7 18 C-7.99 18 -8.98 18 -10 18 C-10.66 17.34 -11.32 16.68 -12 16 C-12 14.68 -12 13.36 -12 12 C-7.05 11.67 -2.1 11.34 3 11 C3.36636582 4.34859321 3.36636582 4.34859321 0 0 Z " fill="#7CBABB" transform="translate(235,27)"/>
<path d="M0 0 C2 2 2 2 2 5 C1.07767578 5.09087891 1.07767578 5.09087891 0.13671875 5.18359375 C-0.67152344 5.26738281 -1.47976562 5.35117187 -2.3125 5.4375 C-3.11300781 5.51871094 -3.91351563 5.59992187 -4.73828125 5.68359375 C-7.16087179 5.95265693 -7.16087179 5.95265693 -10 7 C-10.66 6.67 -11.32 6.34 -12 6 C-12 5.34 -12 4.68 -12 4 C-11.34 4 -10.68 4 -10 4 C-10 3.34 -10 2.68 -10 2 C-6.60535554 -0.08901197 -3.95158471 -0.34361606 0 0 Z " fill="#74BABB" transform="translate(126,31)"/>
<path d="M0 0 C2.64 0 5.28 0 8 0 C8.66 1.98 9.32 3.96 10 6 C9.34 6 8.68 6 8 6 C8 7.65 8 9.3 8 11 C7.34 10.67 6.68 10.34 6 10 C6 8.02 6 6.04 6 4 C4.02 4 2.04 4 0 4 C0 2.68 0 1.36 0 0 Z " fill="#D9F4F5" transform="translate(24,35)"/>
<path d="M0 0 C2.625 1.6875 2.625 1.6875 4 4 C3.75 6.75 3.75 6.75 3 9 C2.71125 8.38125 2.4225 7.7625 2.125 7.125 C1.06279958 4.86674235 1.06279958 4.86674235 -1 3 C-3.68839385 2.73008094 -6.29141936 2.91262643 -9 3 C-9.99 5.31 -10.98 7.62 -12 10 C-12.66 9.01 -13.32 8.02 -14 7 C-12.00827927 -0.42368637 -6.80205404 -0.99273221 0 0 Z " fill="#CFF3F6" transform="translate(235,27)"/>
<path d="M0 0 C1.89947803 0.95311887 3.74202552 2.01813318 5.5703125 3.1015625 C4.5803125 3.5965625 4.5803125 3.5965625 3.5703125 4.1015625 C2.99925781 3.80121094 2.42820312 3.50085938 1.83984375 3.19140625 C-2.8491462 0.93972261 -8.37217786 1.46937379 -13.4296875 2.1015625 C-16.35688572 3.46537076 -18.03553741 4.87444614 -20.4296875 7.1015625 C-21.0896875 6.7715625 -21.7496875 6.4415625 -22.4296875 6.1015625 C-15.52744872 0.1405381 -9.31228804 -3.44345056 0 0 Z " fill="#5BC6C2" transform="translate(42.4296875,14.8984375)"/>
<path d="M0 0 C2.0625 0.4375 2.0625 0.4375 4 1 C3.979375 1.78375 3.95875 2.5675 3.9375 3.375 C3.81315937 5.98114961 3.81315937 5.98114961 5 8 C4.0625 10.125 4.0625 10.125 3 12 C2.01 11.67 1.02 11.34 0 11 C-1.16461426 7.50615721 -1.13568319 4.66344611 -1 1 C-0.67 0.67 -0.34 0.34 0 0 Z " fill="#31A7B5" transform="translate(18,30)"/>
<path d="M0 0 C0.33 0.99 0.66 1.98 1 3 C-2.77952756 7.72440945 -2.77952756 7.72440945 -5.9375 8.4375 C-10.36567296 8.57168706 -13.46951822 7.86851644 -17 5 C-17 4.34 -17 3.68 -17 3 C-15.7315625 3.495 -15.7315625 3.495 -14.4375 4 C-10.65067077 5.10162305 -7.91776333 5.50785821 -4 5 C-1.52791204 2.64167228 -1.52791204 2.64167228 0 0 Z " fill="#D2F7F8" transform="translate(162,41)"/>
<path d="M0 0 C1.65 0 3.3 0 5 0 C5 2.97 5 5.94 5 9 C0.25 8.25 0.25 8.25 -2 6 C-1.01 5.67 -0.02 5.34 1 5 C0.67 3.35 0.34 1.7 0 0 Z " fill="#1884A2" transform="translate(24,41)"/>
<path d="M0 0 C3.0625 0.1875 3.0625 0.1875 5.0625 2.1875 C5.0625 3.1775 5.0625 4.1675 5.0625 5.1875 C1.7625 5.1875 -1.5375 5.1875 -4.9375 5.1875 C-3.69966216 0.23614865 -3.69966216 0.23614865 0 0 Z " fill="#7EBBBA" transform="translate(102.9375,30.8125)"/>
<path d="M0 0 C0.66 0 1.32 0 2 0 C1.71125 0.70125 1.4225 1.4025 1.125 2.125 C0.75375 3.07375 0.3825 4.0225 0 5 C-0.37125 5.928125 -0.7425 6.85625 -1.125 7.8125 C-2.92558233 14.37176418 -2.09810568 19.70568296 0 26 C-0.66 26.33 -1.32 26.66 -2 27 C-4.56231451 20.11377974 -5.73078089 11.61290732 -3.1015625 4.60546875 C-2 2.6875 -2 2.6875 0 0 Z " fill="#7EBBBB" transform="translate(15,19)"/>
<path d="M0 0 C0.66 0 1.32 0 2 0 C1.67 1.65 1.34 3.3 1 5 C2.32 4.01 3.64 3.02 5 2 C4.67 3.98 4.34 5.96 4 8 C2.68 7.67 1.36 7.34 0 7 C0 6.01 0 5.02 0 4 C-2.64 4.66 -5.28 5.32 -8 6 C-8 5.01 -8 4.02 -8 3 C-6.865625 2.690625 -5.73125 2.38125 -4.5625 2.0625 C-1.21224901 1.37075469 -1.21224901 1.37075469 0 0 Z " fill="#21667D" transform="translate(49,36)"/>
<path d="M0 0 C-0.875 4.875 -0.875 4.875 -2 6 C-3.66617115 6.04063832 -5.33388095 6.042721 -7 6 C-7.33 4.35 -7.66 2.7 -8 1 C-5.29120665 -0.35439668 -2.99066732 -0.06501451 0 0 Z " fill="#7CB9BB" transform="translate(128,39)"/>
<path d="M0 0 C3.4375 0.1875 3.4375 0.1875 7 1 C7.66 2.32 8.32 3.64 9 5 C5.37 5 1.74 5 -2 5 C-1 1 -1 1 0 0 Z " fill="#67BDBB" transform="translate(227,30)"/>
<path d="M0 0 C0.66 0.33 1.32 0.66 2 1 C1.67 2.98 1.34 4.96 1 7 C7.31268603 7.37552165 7.31268603 7.37552165 13 5 C13.33 5.66 13.66 6.32 14 7 C9.82561234 9.38536438 6.83415572 10.6445541 2 10 C0.125 8.875 0.125 8.875 -1 7 C-1.25 3.875 -1.25 3.875 -1 1 C-0.67 0.67 -0.34 0.34 0 0 Z " fill="#D7F9FB" transform="translate(189,39)"/>
<path d="M0 0 C1.32 0 2.64 0 4 0 C4.6875 2.3125 4.6875 2.3125 5 5 C3.6875 6.8125 3.6875 6.8125 2 8 C1.34 8 0.68 8 0 8 C-2 5 -2 5 -1.6875 2.875 C-1 1 -1 1 0 0 Z " fill="#F8FDFC" transform="translate(34,21)"/>
<path d="M0 0 C0.33 0 0.66 0 1 0 C1.33 2.31 1.66 4.62 2 7 C2.61488281 6.97679687 3.22976562 6.95359375 3.86328125 6.9296875 C4.67152344 6.91164063 5.47976562 6.89359375 6.3125 6.875 C7.11300781 6.85179687 7.91351563 6.82859375 8.73828125 6.8046875 C11 7 11 7 14 9 C13.67 9.66 13.34 10.32 13 11 C12.67 10.67 12.34 10.34 12 10 C9.96618256 9.80034595 9.96618256 9.80034595 7.625 9.8125 C6.43777344 9.79123047 6.43777344 9.79123047 5.2265625 9.76953125 C2.71268667 9.85492491 2.71268667 9.85492491 0 12 C0 8.04 0 4.08 0 0 Z " fill="#7CBABA" transform="translate(169,18)"/>
<path d="M0 0 C2.31 0 4.62 0 7 0 C7 0.66 7 1.32 7 2 C6.34 2 5.68 2 5 2 C5.309375 3.1446875 5.309375 3.1446875 5.625 4.3125 C6 7 6 7 4 10 C3.34 10 2.68 10 2 10 C1.11064623 6.696686 0.53725895 3.37705625 0 0 Z " fill="#4F818C" transform="translate(32,31)"/>
<path d="M0 0 C0 0.99 0 1.98 0 3 C-1.65 3 -3.3 3 -5 3 C-5.33 4.65 -5.66 6.3 -6 8 C-6.99 7.34 -7.98 6.68 -9 6 C-9.1875 3.375 -9.1875 3.375 -9 1 C-5.8035914 -0.06546953 -3.34252724 -0.07427838 0 0 Z " fill="#E5FBFB" transform="translate(30,30)"/>
<path d="M0 0 C7.75 -0.125 7.75 -0.125 10 1 C10.625 4.0625 10.625 4.0625 11 7 C9.02 7 7.04 7 5 7 C5 5.35 5 3.7 5 2 C3.35 1.67 1.7 1.34 0 1 C0 0.67 0 0.34 0 0 Z " fill="#75B9B9" transform="translate(192,29)"/>
<path d="M0 0 C0.33 0.66 0.66 1.32 1 2 C3.02463255 2.65213292 3.02463255 2.65213292 5 3 C3.71034824 4.37562854 2.37310707 5.70766393 1 7 C0.34 7 -0.32 7 -1 7 C-1.33 7.66 -1.66 8.32 -2 9 C-2.33 8.34 -2.66 7.68 -3 7 C-4.65 7.33 -6.3 7.66 -8 8 C-7.34 6.68 -6.68 5.36 -6 4 C-4.02 4 -2.04 4 0 4 C-0.33 3.01 -0.66 2.02 -1 1 C-0.67 0.67 -0.34 0.34 0 0 Z " fill="#72BAB7" transform="translate(221,25)"/>
<path d="M0 0 C3.15234375 -0.36328125 3.15234375 -0.36328125 6.9375 -0.3125 C8.18402344 -0.30863281 9.43054688 -0.30476562 10.71484375 -0.30078125 C14 0 14 0 17 2 C7.595 2.495 7.595 2.495 -2 3 C-1.34 2.01 -0.68 1.02 0 0 Z " fill="#E3FDFE" transform="translate(28,12)"/>
<path d="M0 0 C7.425 0.99 7.425 0.99 15 2 C14.67 2.99 14.34 3.98 14 5 C13.01 4.67 12.02 4.34 11 4 C8.94106379 3.77674186 6.87766347 3.59294241 4.8125 3.4375 C3.18248047 3.31181641 3.18248047 3.31181641 1.51953125 3.18359375 C0.68808594 3.12300781 -0.14335937 3.06242188 -1 3 C-0.67 2.01 -0.34 1.02 0 0 Z " fill="#85C5C5" transform="translate(31,9)"/>
<path d="M0 0 C0 0.99 0 1.98 0 3 C-4.64849515 5.3992233 -8.91086074 5.19957409 -14 5 C-13.67 4.01 -13.34 3.02 -13 2 C-11.20873548 1.66451233 -9.41697413 1.33167645 -7.625 1 C-6.62726562 0.814375 -5.62953125 0.62875 -4.6015625 0.4375 C-2 0 -2 0 0 0 Z " fill="#BFDBE2" transform="translate(45,52)"/>
<path d="M0 0 C0.33 0.99 0.66 1.98 1 3 C2.98 3 4.96 3 7 3 C5.25 6.875 5.25 6.875 3 8 C2.34 7.67 1.68 7.34 1 7 C1 7.66 1 8.32 1 9 C0.01 8.67 -0.98 8.34 -2 8 C-1.67 7.67 -1.34 7.34 -1 7 C-0.63239269 4.67182036 -0.29758419 2.3381615 0 0 Z " fill="#7BA5B2" transform="translate(40,39)"/>
<path d="M0 0 C-2.39763185 2.39763185 -3.33273498 2.34280586 -6.625 2.625 C-7.44226562 2.69976563 -8.25953125 2.77453125 -9.1015625 2.8515625 C-9.72804688 2.90054687 -10.35453125 2.94953125 -11 3 C-11.33 3.99 -11.66 4.98 -12 6 C-14.0625 6.6875 -14.0625 6.6875 -16 7 C-13.50364016 -0.48907951 -6.7475847 -0.53980678 0 0 Z " fill="#4CE5E1" transform="translate(38,16)"/>
<path d="M0 0 C1.98 0 3.96 0 6 0 C6.33 1.65 6.66 3.3 7 5 C6.01 5.495 6.01 5.495 5 6 C5 4.35 5 2.7 5 1 C4.34 2.32 3.68 3.64 3 5 C1.68 5 0.36 5 -1 5 C-0.67 3.35 -0.34 1.7 0 0 Z " fill="#A5D9DF" transform="translate(243,42)"/>
<path d="M0 0 C0.66 0 1.32 0 2 0 C2 0.66 2 1.32 2 2 C2.66 2.33 3.32 2.66 4 3 C-2.93 4.485 -2.93 4.485 -10 6 C-10 5.01 -10 4.02 -10 3 C-9.04287109 2.80083984 -9.04287109 2.80083984 -8.06640625 2.59765625 C-7.24011719 2.42105469 -6.41382813 2.24445312 -5.5625 2.0625 C-4.73878906 1.88847656 -3.91507813 1.71445312 -3.06640625 1.53515625 C-1.02338796 1.19247006 -1.02338796 1.19247006 0 0 Z " fill="#7BBABC" transform="translate(201,46)"/>
<path d="M0 0 C2.4375 0.625 2.4375 0.625 5 2 C6 4.9375 6 4.9375 6 8 C5 9.875 5 9.875 3 11 C-0.6875 11.1875 -0.6875 11.1875 -4 11 C-4 10.67 -4 10.34 -4 10 C-2.02 10 -0.04 10 2 10 C2 9.34 2 8.68 2 8 C2.66 8 3.32 8 4 8 C4 6.35 4 4.7 4 3 C2.68 2.67 1.36 2.34 0 2 C0 1.34 0 0.68 0 0 Z " fill="#82BBBC" transform="translate(155,36)"/>
<path d="M0 0 C0.33 0 0.66 0 1 0 C1.02578125 0.66386719 1.0515625 1.32773437 1.078125 2.01171875 C1.43351002 7.54441741 1.83118278 10.96566075 6 15 C3 15 3 15 1 14 C0.67 14.66 0.34 15.32 0 16 C0 10.72 0 5.44 0 0 Z " fill="#8FC6C7" transform="translate(184,32)"/>
<path d="M0 0 C2 2 2 2 2.125 5.625 C2.08375 6.73875 2.0425 7.8525 2 9 C1.01 9.33 0.02 9.66 -1 10 C-1.9765625 3.9453125 -1.9765625 3.9453125 -2 2 C-1.34 1.34 -0.68 0.68 0 0 Z " fill="#F1F7F3" transform="translate(130,38)"/>
<path d="M0 0 C4.875 0.875 4.875 0.875 6 2 C6 3.65 6 5.3 6 7 C2.37 7 -1.26 7 -5 7 C-5 6.67 -5 6.34 -5 6 C-2.69 6 -0.38 6 2 6 C2 5.34 2 4.68 2 4 C2.66 3.67 3.32 3.34 4 3 C2.68 2.01 1.36 1.02 0 0 Z " fill="#CCEDEF" transform="translate(43,29)"/>
<path d="M0 0 C1.19882812 0.15275391 1.19882812 0.15275391 2.421875 0.30859375 C3.02515625 0.39238281 3.6284375 0.47617187 4.25 0.5625 C2.36022825 2.53101224 1.01291612 3.54472331 -1.76171875 3.609375 C-3.9375 3.375 -3.9375 3.375 -7.75 2.5625 C-8.08 1.9025 -8.41 1.2425 -8.75 0.5625 C-5.62819599 -0.40411363 -3.22916205 -0.42738909 0 0 Z " fill="#21617E" transform="translate(42.75,49.4375)"/>
<path d="M0 0 C0.99 0.99 1.98 1.98 3 3 C-1.1205746 4.99785435 -4.45194365 5.17835515 -9 5 C-9 4.01 -9 3.02 -9 2 C-7.6078125 2.061875 -7.6078125 2.061875 -6.1875 2.125 C-2.84190281 2.27136339 -2.84190281 2.27136339 0 0 Z " fill="#80BDBE" transform="translate(127,46)"/>
<path d="M0 0 C0 0.66 0 1.32 0 2 C-1.11375 2.309375 -2.2275 2.61875 -3.375 2.9375 C-6.7945155 3.82326483 -6.7945155 3.82326483 -9 5 C-9.33 3.68 -9.66 2.36 -10 1 C-6.21812119 -0.83691257 -4.05431692 -1.15837626 0 0 Z " fill="#BFE9ED" transform="translate(221,27)"/>
<path d="M0 0 C2.31 0 4.62 0 7 0 C9 6.625 9 6.625 9 10 C8.01 9.34 7.02 8.68 6 8 C5.8125 4.875 5.8125 4.875 6 2 C4.35 2 2.7 2 1 2 C0.67 1.34 0.34 0.68 0 0 Z " fill="#297381" transform="translate(23,39)"/>
<path d="M0 0 C1.33332095 2.6666419 0.67102033 4.16680303 0 7 C-1.32 7 -2.64 7 -4 7 C-4 7.66 -4 8.32 -4 9 C-5.32 8.67 -6.64 8.34 -8 8 C-6.50260417 6.79557292 -5.00520833 5.59114583 -3.5078125 4.38671875 C-1.74707893 2.87729455 -1.74707893 2.87729455 0 0 Z " fill="#7AB8B7" transform="translate(55,45)"/>
<path d="M0 0 C1.98 0 3.96 0 6 0 C6.33 0.99 6.66 1.98 7 3 C3.7 3.33 0.4 3.66 -3 4 C-2.67 3.01 -2.34 2.02 -2 1 C-1.34 1.33 -0.68 1.66 0 2 C0 1.34 0 0.68 0 0 Z " fill="#21ABBA" transform="translate(45,23)"/>
<path d="M0 0 C1.98 0 3.96 0 6 0 C6 0.66 6 1.32 6 2 C4.03852126 3.38938077 2.03833424 4.7260411 0 6 C-0.66 5.34 -1.32 4.68 -2 4 C-1.34 2.68 -0.68 1.36 0 0 Z " fill="#39D0D0" transform="translate(20,22)"/>
<path d="M0 0 C0.66 0.33 1.32 0.66 2 1 C1.34 1.66 0.68 2.32 0 3 C0.32326553 6.59679066 0.32326553 6.59679066 1 10 C0.01 10 -0.98 10 -2 10 C-2.6875 7.25 -2.6875 7.25 -3 4 C-1.5625 1.625 -1.5625 1.625 0 0 Z " fill="#DBF3F3" transform="translate(117,37)"/>
<path d="M0 0 C0.33 0 0.66 0 1 0 C1 1.98 1 3.96 1 6 C1.66 6 2.32 6 3 6 C2.67 7.65 2.34 9.3 2 11 C0.68 11.33 -0.64 11.66 -2 12 C-1.34 8.04 -0.68 4.08 0 0 Z " fill="#BDDFE4" transform="translate(55,32)"/>
<path d="M0 0 C0.66 0 1.32 0 2 0 C2 1.65 2 3.3 2 5 C-0.64 5.33 -3.28 5.66 -6 6 C-5.67 5.01 -5.34 4.02 -5 3 C-3.35 3 -1.7 3 0 3 C0 2.01 0 1.02 0 0 Z " fill="#48B7B7" transform="translate(28,24)"/>
<path d="M0 0 C0.66 0 1.32 0 2 0 C1.8125 1.8125 1.8125 1.8125 1 4 C-1.25 5.8125 -1.25 5.8125 -4 7 C-6.8125 6.6875 -6.8125 6.6875 -9 6 C-9 5.67 -9 5.34 -9 5 C-7.88625 4.731875 -6.7725 4.46375 -5.625 4.1875 C-1.78159049 3.34190981 -1.78159049 3.34190981 0 0 Z " fill="#7CBBBE" transform="translate(162,44)"/>
<path d="M0 0 C0.33 0.99 0.66 1.98 1 3 C2.65 3.33 4.3 3.66 6 4 C5.01 5.485 5.01 5.485 4 7 C3.01 7 2.02 7 1 7 C0.67 4.69 0.34 2.38 0 0 Z " fill="#2B9FAA" transform="translate(17,38)"/>
<path d="M0 0 C1.5 1.375 1.5 1.375 3 3 C3 3.66 3 4.32 3 5 C1.1875 5.6875 1.1875 5.6875 -1 6 C-2.75 4.5625 -2.75 4.5625 -4 3 C-2.68 3 -1.36 3 0 3 C0 2.01 0 1.02 0 0 Z " fill="#207892" transform="translate(29,47)"/>
<path d="M0 0 C2 3 2 3 2 5 C1.34 5 0.68 5 0 5 C0 6.65 0 8.3 0 10 C-0.66 9.67 -1.32 9.34 -2 9 C-2 7.02 -2 5.04 -2 3 C-1.34 3 -0.68 3 0 3 C0 2.01 0 1.02 0 0 Z " fill="#CCE7E9" transform="translate(32,36)"/>
<path d="M0 0 C2.31 0 4.62 0 7 0 C7 0.66 7 1.32 7 2 C6.34 2 5.68 2 5 2 C4.34 3.32 3.68 4.64 3 6 C2.01 4.02 1.02 2.04 0 0 Z " fill="#B5E5EC" transform="translate(32,31)"/>
<path d="M0 0 C2.02045442 0.60183749 4.02111039 1.27306096 6 2 C6.33 2.66 6.66 3.32 7 4 C4.69 4 2.38 4 0 4 C0 2.68 0 1.36 0 0 Z " fill="#EEFEFE" transform="translate(41,29)"/>
<path d="M0 0 C2.0625 0.4375 2.0625 0.4375 4 1 C2.625 3.5 2.625 3.5 1 6 C0.34 6 -0.32 6 -1 6 C-1.042721 4.33388095 -1.04063832 2.66617115 -1 1 C-0.67 0.67 -0.34 0.34 0 0 Z " fill="#2DB7BC" transform="translate(18,30)"/>
<path d="M0 0 C1.23556641 0.01740234 1.23556641 0.01740234 2.49609375 0.03515625 C3.32238281 0.04417969 4.14867187 0.05320312 5 0.0625 C5.63808594 0.07410156 6.27617188 0.08570312 6.93359375 0.09765625 C6.93359375 1.08765625 6.93359375 2.07765625 6.93359375 3.09765625 C6.27359375 2.76765625 5.61359375 2.43765625 4.93359375 2.09765625 C0.66912667 1.64685999 0.66912667 1.64685999 -2.94140625 3.59765625 C-3.31265625 4.09265625 -3.68390625 4.58765625 -4.06640625 5.09765625 C-2.94676868 0.13926128 -2.94676868 0.13926128 0 0 Z " fill="#51C8C6" transform="translate(33.06640625,18.90234375)"/>
<path d="M0 0 C0.66 0.33 1.32 0.66 2 1 C-1.625 5.875 -1.625 5.875 -5 7 C-3.75023244 3.34683329 -3.32901247 2.21934164 0 0 Z " fill="#DDF7F8" transform="translate(98,27)"/>
<path d="M0 0 C4.29 0 8.58 0 13 0 C13 0.33 13 0.66 13 1 C11.39602723 1.16852247 9.7918131 1.33474886 8.1875 1.5 C7.29417969 1.5928125 6.40085937 1.685625 5.48046875 1.78125 C3 2 3 2 0 2 C0 1.34 0 0.68 0 0 Z " fill="#7AB7B5" transform="translate(98,40)"/>
<path d="M0 0 C0.33 0 0.66 0 1 0 C1 1.98 1 3.96 1 6 C0.01 5.67 -0.98 5.34 -2 5 C-2 4.34 -2 3.68 -2 3 C-2.99 2.67 -3.98 2.34 -5 2 C-4.360625 1.855625 -3.72125 1.71125 -3.0625 1.5625 C-1.02454854 1.18992819 -1.02454854 1.18992819 0 0 Z " fill="#7CC2C0" transform="translate(164,34)"/>
</svg>
