<?xml version="1.0" encoding="UTF-8"?>
<svg version="1.1" xmlns="http://www.w3.org/2000/svg" width="440" height="83">
<path d="M0 0 C145.2 0 290.4 0 440 0 C440 27.39 440 54.78 440 83 C294.8 83 149.6 83 0 83 C0 55.61 0 28.22 0 0 Z " fill="#FDFEFE" transform="translate(0,0)"/>
<path d="M0 0 C7.53503709 5.25610052 13.13312381 11.98743181 15.03515625 21.1171875 C16.26097406 31.99632053 15.68808147 41.6921706 9.1171875 50.765625 C4.1732066 56.73340371 -0.79224193 60.28035535 -7.96484375 63.1171875 C-8.91359375 63.5503125 -9.86234375 63.9834375 -10.83984375 64.4296875 C-20.19540277 66.48791048 -29.40524754 65.43741555 -37.96484375 61.1171875 C-46.30125029 55.09451165 -52.57280137 48.25736714 -54.96484375 38.1171875 C-56.12931205 27.62671312 -55.6184024 17.80818504 -49.45703125 8.94921875 C-37.0678771 -6.40757 -16.87587959 -9.64889557 0 0 Z " fill="#27B6BF" transform="translate(69.96484375,10.8828125)"/>
<path d="M0 0 C9.4875 -0.103125 18.975 -0.20625 28.75 -0.3125 C31.7209668 -0.35802002 34.69193359 -0.40354004 37.75292969 -0.45043945 C40.14256669 -0.46506053 42.53221627 -0.47779735 44.921875 -0.48828125 C46.13439941 -0.51386108 47.34692383 -0.53944092 48.59619141 -0.5657959 C61.29021972 -0.57220702 71.53583168 3.80177592 80.64453125 12.5859375 C89.65374619 22.30220475 91.48528904 32.72810676 91.27734375 45.50390625 C91.0499258 50.97211999 89.75080565 55.26724742 87 60 C86.34644531 61.16402344 86.34644531 61.16402344 85.6796875 62.3515625 C81.1749444 69.71177117 75.1275382 75.78678722 67 79 C66.01 79 65.02 79 64 79 C63.34 80.32 62.68 81.64 62 83 C41.54 83 21.08 83 0 83 C0 55.61 0 28.22 0 0 Z M20.84765625 19.4921875 C14.1679505 28.55851116 14.1402734 38.18893798 15 49 C16.6099556 58.40099073 24.17167038 66.13226763 31.625 71.55859375 C39.83863322 76.54351259 49.64091422 77.50274791 58.92578125 75.30859375 C69.99031119 71.65102438 76.98126396 65.00862135 83.1015625 55.2421875 C86.72200604 47.69677713 86.04258475 37.04899533 84.37890625 28.9921875 C80.95288731 19.27752045 73.89792223 12.57759659 64.77905273 8.05249023 C48.79312374 1.14952341 31.85577877 6.74594037 20.84765625 19.4921875 Z " fill="#FCFDFD" transform="translate(0,0)"/>
<path d="M0 0 C3.375 0.875 3.375 0.875 5.375 2.875 C5.60205078 4.93798828 5.60205078 4.93798828 5.5703125 7.4453125 C5.56064453 8.78916016 5.56064453 8.78916016 5.55078125 10.16015625 C5.53402344 11.09730469 5.51726562 12.03445312 5.5 13 C5.49097656 13.94488281 5.48195313 14.88976563 5.47265625 15.86328125 C5.44904668 18.20062827 5.41317494 20.53784549 5.375 22.875 C11.645 22.875 17.915 22.875 24.375 22.875 C24.35179687 21.46605469 24.32859375 20.05710937 24.3046875 18.60546875 C24.28592962 16.75781779 24.26772944 14.91016111 24.25 13.0625 C24.23324219 12.13373047 24.21648437 11.20496094 24.19921875 10.24804688 C24.19277344 9.35537109 24.18632812 8.46269531 24.1796875 7.54296875 C24.16921387 6.72078857 24.15874023 5.8986084 24.14794922 5.05151367 C24.375 2.875 24.375 2.875 26.375 -0.125 C28.3203125 -0.41796875 28.3203125 -0.41796875 30.5 -0.3125 C31.77875 -0.250625 33.0575 -0.18875 34.375 -0.125 C34.375 0.535 34.375 1.195 34.375 1.875 C35.035 1.875 35.695 1.875 36.375 1.875 C36.45095253 8.94076669 36.50355861 16.00642844 36.53979492 23.07250977 C36.55489816 25.47717218 36.57538208 27.88180698 36.60131836 30.28637695 C36.63763351 33.73916431 36.654711 37.19158804 36.66796875 40.64453125 C36.68345261 41.72273636 36.69893646 42.80094147 36.71488953 43.91181946 C36.71511612 44.91263046 36.71534271 45.91344147 36.71557617 46.94458008 C36.72223801 47.82616287 36.72889984 48.70774567 36.73576355 49.61604309 C36.29632049 52.3676596 35.60685247 53.24715409 33.375 54.875 C28.22797237 55.51837845 28.22797237 55.51837845 25.70581055 53.6159668 C24.04987576 51.44967236 24.02456489 50.34545037 24.08203125 47.64453125 C24.09327026 46.55942261 24.09327026 46.55942261 24.10473633 45.45239258 C24.13204834 44.53997803 24.15936035 43.62756348 24.1875 42.6875 C24.249375 39.779375 24.31125 36.87125 24.375 33.875 C18.105 33.875 11.835 33.875 5.375 33.875 C5.49324726 39.29001356 5.49324726 39.29001356 5.64526367 44.70410156 C5.68427147 48.24584153 5.70668146 50.31619816 3.86328125 53.421875 C3.37214844 53.90140625 2.88101563 54.3809375 2.375 54.875 C-4.09617585 54.26451171 -4.09617585 54.26451171 -6.33021545 52.6190033 C-7.9950605 50.37654894 -8.01066134 49.06181606 -8.02905273 46.28344727 C-8.04173691 45.35560928 -8.05442108 44.4277713 -8.06748962 43.47181702 C-8.06455399 42.47178146 -8.06161835 41.47174591 -8.05859375 40.44140625 C-8.0638356 39.41192368 -8.06907745 38.3824411 -8.07447815 37.32176208 C-8.08090374 35.14379783 -8.07955445 32.9657989 -8.07104492 30.7878418 C-8.06254115 27.45363575 -8.09128008 24.1211458 -8.12304688 20.78710938 C-8.12465909 18.67187551 -8.12408097 16.55663862 -8.12109375 14.44140625 C-8.13232773 13.44339493 -8.14356171 12.44538361 -8.15513611 11.41712952 C-8.08600813 4.55668826 -8.08600813 4.55668826 -5.82055664 1.20678711 C-3.625 -0.125 -3.625 -0.125 0 0 Z " fill="#F3F6F4" transform="translate(110.625,13.125)"/>
<path d="M0 0 C2.1953125 0.359375 2.1953125 0.359375 5.2578125 1.609375 C8.42440874 6.10389869 7.57192514 11.03658309 7.1953125 16.359375 C7.93136719 16.31296875 8.66742188 16.2665625 9.42578125 16.21875 C17.27920717 15.92826661 17.27920717 15.92826661 21.3828125 17.859375 C23.46921724 20.73717464 23.84718645 22.84522546 23.62890625 26.390625 C22.95472801 29.45175864 21.40742611 31.21232355 19.1953125 33.359375 C16.67055788 34.62175231 14.88330784 34.45793904 12.0703125 34.421875 C11.16023438 34.41285156 10.25015625 34.40382812 9.3125 34.39453125 C8.61382812 34.38292969 7.91515625 34.37132812 7.1953125 34.359375 C7.28232422 35.35517578 7.28232422 35.35517578 7.37109375 36.37109375 C7.60213271 40.89285624 7.69108773 43.55973754 5.2578125 47.484375 C1.69724712 49.66431298 -0.53162407 49.91869378 -4.62109375 49.92578125 C-7.71867575 49.12229397 -8.91285841 47.9229097 -10.8046875 45.359375 C-11.1953125 42.34375 -11.1953125 42.34375 -11.0546875 39.109375 C-11.01859375 38.03171875 -10.9825 36.9540625 -10.9453125 35.84375 C-10.89890625 35.02390625 -10.8525 34.2040625 -10.8046875 33.359375 C-11.61292969 33.41738281 -12.42117187 33.47539063 -13.25390625 33.53515625 C-21.9242021 33.90121217 -21.9242021 33.90121217 -26.0546875 31.359375 C-28.40147042 27.33631856 -28.19444859 24.95855592 -27.8046875 20.359375 C-27.1446875 20.359375 -26.4846875 20.359375 -25.8046875 20.359375 C-25.1446875 19.039375 -24.4846875 17.719375 -23.8046875 16.359375 C-19.5146875 16.359375 -15.2246875 16.359375 -10.8046875 16.359375 C-10.8871875 14.461875 -10.9696875 12.564375 -11.0546875 10.609375 C-11.29735288 5.02807137 -11.29735288 5.02807137 -9.06640625 2 C-5.89170142 -0.3028947 -3.81042352 -0.22636179 0 0 Z " fill="#E5F2EF" transform="translate(51.8046875,15.640625)"/>
<path d="M0 0 C2.85999521 2.25394861 3.86631186 4.57338601 5 8 C5.25878906 11.19799805 5.25878906 11.19799805 5.265625 14.76171875 C5.26949219 16.68661133 5.26949219 16.68661133 5.2734375 18.65039062 C5.26715332 19.64389526 5.26715332 19.64389526 5.26074219 20.6574707 C5.24997688 22.69186848 5.2606905 24.72539408 5.2734375 26.75976562 C5.27085937 28.03916016 5.26828125 29.31855469 5.265625 30.63671875 C5.26336914 31.80936279 5.26111328 32.98200684 5.25878906 34.19018555 C5 37 5 37 3 39 C-0.625 38.625 -0.625 38.625 -4 38 C-4.33 37.01 -4.66 36.02 -5 35 C-6.051875 35.639375 -7.10375 36.27875 -8.1875 36.9375 C-12.00926401 39.07341602 -14.70540061 40.46718871 -19.16796875 39.55859375 C-22.86104982 38.50428839 -25.55493682 37.35822158 -28.5625 34.9375 C-30.69337699 30.58309919 -30.85271374 26.75083368 -30 22 C-27.1154469 16.8822445 -23.81181984 15.01318457 -18.3515625 13.4609375 C-14.23492962 12.65402275 -9.85267871 12.07366064 -6 14 C-7.08784968 10.75016865 -7.08784968 10.75016865 -9 8 C-13.06424268 7.83065655 -16.73645846 8.10730871 -20.75 8.75 C-24.70024066 9.22267837 -24.70024066 9.22267837 -27.1875 7.375 C-28 5 -28 5 -27.8125 2.4375 C-21.75375418 -5.71046852 -8.11105666 -3.8197418 0 0 Z " fill="#F6F9F8" transform="translate(218,29)"/>
<path d="M0 0 C1.2065625 1.11375 1.2065625 1.11375 2.4375 2.25 C3.200625 2.91 3.96375 3.57 4.75 4.25 C7.73835377 7.79175262 7.57453839 11.42912122 7.5625 15.9375 C7.56636719 17.39736328 7.56636719 17.39736328 7.5703125 18.88671875 C7.4375 21.25 7.4375 21.25 6.4375 22.25 C4.65678754 22.33726223 2.8726686 22.35699041 1.08984375 22.34765625 C0.01025391 22.34443359 -1.06933594 22.34121094 -2.18164062 22.33789062 C-3.31794922 22.32951172 -4.45425781 22.32113281 -5.625 22.3125 C-6.76517578 22.30798828 -7.90535156 22.30347656 -9.08007812 22.29882812 C-11.90760351 22.28699747 -14.7350264 22.2705141 -17.5625 22.25 C-16.31273244 25.90316671 -15.89151247 27.03065836 -12.5625 29.25 C-10.43547641 29.31263899 -10.43547641 29.31263899 -8.1875 28.9375 C-7.39214844 28.834375 -6.59679687 28.73125 -5.77734375 28.625 C-3.44111422 28.27245797 -3.44111422 28.27245797 -0.75 27.4375 C1.4375 27.25 1.4375 27.25 3.8125 28.9375 C5.4375 31.25 5.4375 31.25 5.625 33.25 C3.11059109 37.48479396 -1.40249478 38.94925791 -5.9375 40.125 C-13.24977162 40.3771473 -19.11140317 38.83750159 -24.83203125 34.14453125 C-29.02021687 29.55927159 -30.72423756 23.74543596 -31.0625 17.625 C-30.7539682 11.9818538 -28.74478209 7.53147673 -24.84375 3.453125 C-17.94028119 -2.68979216 -8.48025941 -4.16574147 0 0 Z " fill="#F2F5F3" transform="translate(179.5625,28.75)"/>
<path d="M0 0 C0 3 0 3 -2 5.6875 C-6.02850541 8.79280625 -8.03274907 8.42095347 -13 8 C-13.33 9.65 -13.66 11.3 -14 13 C-11.8128711 14.32789969 -10.52279544 15.04752686 -7.9375 14.8125 C-5.91158205 14.13659415 -5.91158205 14.13659415 -4.6875 12.4375 C-2.01698232 10.16261457 0.63523508 10.80954161 4 11 C4 11.66 4 12.32 4 13 C3.34 13 2.68 13 2 13 C1.95875 14.051875 1.9175 15.10375 1.875 16.1875 C0.96442307 20.15501377 0.06279711 21.50263113 -3.19140625 23.875 C-6.35609711 25.84353341 -9.59154825 27.4966788 -13 29 C-13.9075 29.4125 -14.815 29.825 -15.75 30.25 C-26.09695286 32.63775835 -36.44456476 31.05226435 -45.49609375 25.45703125 C-49.12540267 22.62992252 -51.36227877 20.39537009 -52.0625 15.75 C-52 12 -52 12 -51 9 C-49.68 9 -48.36 9 -47 9 C-47.33 7.02 -47.66 5.04 -48 3 C-41.07 3.495 -41.07 3.495 -34 4 C-33.505 10.93 -33.505 10.93 -33 18 C-28.93402667 19.35532444 -25.25021108 19.5149442 -21 19 C-18.29441138 17.79504081 -18.29441138 17.79504081 -17 15 C-16.39466003 11.67063019 -16.12897066 8.3790312 -16 5 C-15.02160156 4.96132813 -15.02160156 4.96132813 -14.0234375 4.921875 C-8.11925307 4.53871259 -4.60333137 3.75534928 0 0 Z " fill="#2088A2" transform="translate(75,45)"/>
<path d="M0 0 C1.02577148 0.00676758 1.02577148 0.00676758 2.07226562 0.01367188 C3.73571604 0.0253044 5.3991205 0.04323306 7.0625 0.0625 C5.0625 3.0625 5.0625 3.0625 2.0625 4.0625 C4.5375 4.5575 4.5375 4.5575 7.0625 5.0625 C7.0625 5.7225 7.0625 6.3825 7.0625 7.0625 C7.7225 7.0625 8.3825 7.0625 9.0625 7.0625 C11.27997812 9.36526574 12.03010006 10.58730092 12.25 13.8125 C12.1571875 14.92625 12.1571875 14.92625 12.0625 16.0625 C11.815 15.464375 11.5675 14.86625 11.3125 14.25 C9.76712524 11.54559418 8.85602635 10.49507762 6.0625 9.0625 C0.45372925 8.30235247 0.45372925 8.30235247 -4.671875 10.19921875 C-6.47119069 12.84821129 -6.45445061 15.07778134 -6.625 18.25 C-6.69074219 19.33667969 -6.75648437 20.42335938 -6.82421875 21.54296875 C-6.86160156 22.37441406 -6.89898437 23.20585937 -6.9375 24.0625 C-7.85273437 24.09988281 -8.76796875 24.13726562 -9.7109375 24.17578125 C-10.89945313 24.24152344 -12.08796875 24.30726562 -13.3125 24.375 C-14.49585937 24.43300781 -15.67921875 24.49101563 -16.8984375 24.55078125 C-17.90132812 24.71964844 -18.90421875 24.88851562 -19.9375 25.0625 C-20.5975 26.0525 -21.2575 27.0425 -21.9375 28.0625 C-22.5975 28.0625 -23.2575 28.0625 -23.9375 28.0625 C-23.65538123 29.6891848 -23.36147625 31.31382896 -23.0625 32.9375 C-22.81886719 34.29488281 -22.81886719 34.29488281 -22.5703125 35.6796875 C-22.10705297 38.22755988 -22.10705297 38.22755988 -19.9375 40.0625 C-19.53985737 42.05071313 -19.19974651 44.05194339 -18.9375 46.0625 C-19.9275 46.7225 -20.9175 47.3825 -21.9375 48.0625 C-21.9375 47.4025 -21.9375 46.7425 -21.9375 46.0625 C-22.5975 46.0625 -23.2575 46.0625 -23.9375 46.0625 C-23.9375 49.3625 -23.9375 52.6625 -23.9375 56.0625 C-30.46458174 49.76049004 -33.12319805 44.07954053 -33.31811523 34.90991211 C-33.28951817 23.90998939 -31.60323884 16.04690829 -23.79296875 7.8203125 C-16.30263351 0.72420543 -10.39218978 -0.09196628 0 0 Z " fill="#30CACA" transform="translate(47.9375,7.9375)"/>
<path d="M0 0 C2.9261467 2.50996454 3.57273282 3.65705214 4.6640625 7.28515625 C4.89111328 10.69848633 4.89111328 10.69848633 4.859375 14.5546875 C4.8565451 15.23569016 4.85371521 15.91669281 4.85079956 16.61833191 C4.83966775 18.7782908 4.81457707 20.93782419 4.7890625 23.09765625 C4.77902361 24.56835336 4.76989935 26.03905701 4.76171875 27.50976562 C4.73975163 31.10169911 4.7052707 34.6933861 4.6640625 38.28515625 C3.3440625 38.28515625 2.0240625 38.28515625 0.6640625 38.28515625 C0.0040625 36.96515625 -0.6559375 35.64515625 -1.3359375 34.28515625 C-2.04556641 34.8265625 -2.04556641 34.8265625 -2.76953125 35.37890625 C-8.07873253 39.10466154 -11.90918703 39.95460942 -18.3359375 39.28515625 C-18.3359375 38.95515625 -18.3359375 38.62515625 -18.3359375 38.28515625 C-15.3659375 37.79015625 -15.3659375 37.79015625 -12.3359375 37.28515625 C-13.5940625 36.89328125 -14.8521875 36.50140625 -16.1484375 36.09765625 C-19.13006544 34.9736089 -20.22841538 34.41283877 -22.3359375 31.91015625 C-23.41201448 29.08545417 -23.72949902 27.27622379 -23.3359375 24.28515625 C-20.85161509 20.55867264 -19.62913134 20.32144442 -15.3359375 19.28515625 C-12.53641555 19.06917348 -9.76649437 19.09420283 -6.9609375 19.16015625 C-5.85685547 19.17369141 -5.85685547 19.17369141 -4.73046875 19.1875 C-2.9321487 19.21085481 -1.13399839 19.24671789 0.6640625 19.28515625 C0.6640625 21.92515625 0.6640625 24.56515625 0.6640625 27.28515625 C1.3240625 27.28515625 1.9840625 27.28515625 2.6640625 27.28515625 C2.6640625 21.67515625 2.6640625 16.06515625 2.6640625 10.28515625 C2.0040625 10.28515625 1.3440625 10.28515625 0.6640625 10.28515625 C0.6640625 12.59515625 0.6640625 14.90515625 0.6640625 17.28515625 C0.08438721 17.29450195 -0.49528809 17.30384766 -1.0925293 17.31347656 C-3.73700696 17.36739695 -6.37975643 17.45099754 -9.0234375 17.53515625 C-10.39145508 17.55642578 -10.39145508 17.55642578 -11.78710938 17.578125 C-16.10785134 17.73524289 -18.68602207 17.87988579 -22.41796875 20.20703125 C-24.92583238 22.92430916 -25.29560002 23.85757892 -25.6484375 27.59765625 C-25.21133555 32.75545924 -22.85952793 34.76156582 -19.3359375 38.28515625 C-22.22687988 37.97541242 -23.38285501 37.24345179 -25.5859375 35.28515625 C-27.92503063 31.27528231 -28.03608902 27.83614112 -27.3359375 23.28515625 C-25.78667555 19.43966678 -24.05333612 18.14385556 -20.3359375 16.28515625 C-16.27185627 15.06665503 -12.29238938 15.17434894 -8.0859375 15.22265625 C-7.34085937 15.22716797 -6.59578125 15.23167969 -5.828125 15.23632812 C-3.9973611 15.24806379 -2.16663877 15.26599775 -0.3359375 15.28515625 C-0.73347571 13.82149283 -1.15475134 12.36426275 -1.5859375 10.91015625 C-1.81796875 10.09804688 -2.05 9.2859375 -2.2890625 8.44921875 C-3.16887361 6.18071277 -3.16887361 6.18071277 -5.16015625 5.01171875 C-7.52889304 4.22072226 -9.40493068 4.01827972 -11.8984375 4.03515625 C-12.66285156 4.03 -13.42726563 4.02484375 -14.21484375 4.01953125 C-16.63576512 4.16220015 -16.63576512 4.16220015 -19.3359375 6.28515625 C-21.8984375 6.16015625 -21.8984375 6.16015625 -24.3359375 5.28515625 C-25.6484375 3.22265625 -25.6484375 3.22265625 -26.3359375 1.28515625 C-18.41579474 -2.59409735 -8.04727343 -4.13671316 0 0 Z " fill="#E0E5E7" transform="translate(344.3359375,28.71484375)"/>
<path d="M0 0 C3.69230769 0.69230769 3.69230769 0.69230769 5 2 C5.09862603 3.39174359 5.1307898 4.78836143 5.1328125 6.18359375 C5.13410156 7.02857422 5.13539063 7.87355469 5.13671875 8.74414062 C5.13285156 9.63294922 5.12898438 10.52175781 5.125 11.4375 C5.12886719 12.32244141 5.13273437 13.20738281 5.13671875 14.11914062 C5.13542969 14.96541016 5.13414062 15.81167969 5.1328125 16.68359375 C5.13168457 17.46275146 5.13055664 18.24190918 5.12939453 19.04467773 C5 21 5 21 4 23 C4.763125 22.360625 5.52625 21.72125 6.3125 21.0625 C11.60567306 17.00029742 17.5776089 17.3806677 24 18 C27.16694102 19.16422784 29.22001099 20.847614 31.13623047 23.67871094 C32.36096992 26.97006839 32.22313255 29.88529904 32.1953125 33.390625 C32.1924826 34.09523865 32.18965271 34.79985229 32.18673706 35.52581787 C32.17557801 37.7673876 32.15048193 40.00855186 32.125 42.25 C32.11496464 43.77343171 32.10583976 45.29686971 32.09765625 46.8203125 C32.07565291 50.54700586 32.04115272 54.27346333 32 58 C30.02 58.495 30.02 58.495 28 59 C25.60445046 55.40667569 25.74812906 53.73776388 25.7265625 49.46875 C25.7059375 48.18355469 25.6853125 46.89835937 25.6640625 45.57421875 C25.64143471 43.53329034 25.62497914 41.4927084 25.61914062 39.45166016 C25.60962687 37.47803252 25.5746893 35.50457898 25.5390625 33.53125 C25.53084473 32.35111328 25.52262695 31.17097656 25.51416016 29.95507812 C25.26934802 26.93607198 25.26934802 26.93607198 23.21240234 25.11132812 C18.9719488 22.98127466 14.57867154 23.62249159 10.125 24.6875 C7.29322585 26.43653697 7.00237527 27.85284856 6 31 C5.63814773 33.99335081 5.63814773 33.99335081 5.5859375 37.17578125 C5.54726563 38.33271484 5.50859375 39.48964844 5.46875 40.68164062 C5.4378125 41.87982422 5.406875 43.07800781 5.375 44.3125 C5.33632813 45.53001953 5.29765625 46.74753906 5.2578125 48.00195312 C5.16371998 51.00115228 5.07807791 54.00034823 5 57 C3.68 57.66 2.36 58.32 1 59 C-1 57 -1 57 -1.24723816 54.64024353 C-1.24581314 53.65286697 -1.24438812 52.66549042 -1.24291992 51.64819336 C-1.24599655 50.53041 -1.24907318 49.41262665 -1.25224304 48.26097107 C-1.24505753 47.04949905 -1.23787201 45.83802704 -1.23046875 44.58984375 C-1.23001053 43.3520668 -1.22955231 42.11428986 -1.2290802 40.83900452 C-1.2252786 37.54641953 -1.21225824 34.25402641 -1.19561768 30.96148682 C-1.18216164 27.60648353 -1.18534184 24.2515137 -1.18554688 20.89648438 C-1.18063168 18.35676883 -1.17480335 15.81705485 -1.16796875 13.27734375 C-1.16685593 12.0638475 -1.1657431 10.85035126 -1.16459656 9.6000824 C-1.15821671 8.4854512 -1.15183685 7.37082001 -1.14526367 6.22241211 C-1.14145187 5.23583115 -1.13764008 4.24925018 -1.13371277 3.23277283 C-1 1 -1 1 0 0 Z " fill="#E7EEF0" transform="translate(281,9)"/>
<path d="M0 0 C3.375 0.6875 3.375 0.6875 4.375 1.6875 C4.49196372 3.08711791 4.54220646 4.49240808 4.56445312 5.89672852 C4.58952942 7.2393148 4.58952942 7.2393148 4.6151123 8.60902405 C4.62868774 9.58496017 4.64226318 10.5608963 4.65625 11.56640625 C4.68386414 13.06735085 4.68386414 13.06735085 4.71203613 14.59861755 C4.77098534 17.81568318 4.82364774 21.03280469 4.875 24.25 C4.92654529 27.44219529 4.97960364 30.63432237 5.03796387 33.82640076 C5.0743123 35.81531417 5.10681207 37.80430282 5.1348877 39.79335022 C5.21135213 43.98818441 5.37164749 48.07660275 5.95507812 52.23413086 C6.375 55.6875 6.375 55.6875 5.375 57.75 C2.1503152 59.261571 -0.25091964 58.53102009 -3.625 57.6875 C-6.20955285 55.79216125 -6.58775506 54.79923483 -7.625 51.6875 C-7.72021667 49.72316216 -7.75573077 47.75570558 -7.7578125 45.7890625 C-7.75998779 44.59643799 -7.76216309 43.40381348 -7.7644043 42.17504883 C-7.75727417 40.26308716 -7.75727417 40.26308716 -7.75 38.3125 C-7.74589111 37.01658936 -7.74178223 35.72067871 -7.73754883 34.38549805 C-7.69188065 26.42106621 -7.60026656 18.45965139 -7.3125 10.5 C-7.29010254 9.62875488 -7.26770508 8.75750977 -7.24462891 7.85986328 C-7.13671875 5.45703125 -7.13671875 5.45703125 -6.625 1.6875 C-3.625 -0.3125 -3.625 -0.3125 0 0 Z " fill="#F3F6F5" transform="translate(233.625,9.3125)"/>
<path d="M0 0 C1 1 1 1 1.0625 3.5625 C1.041875 4.366875 1.02125 5.17125 1 6 C-2.46581449 7.1552715 -3.00659673 6.81550622 -6.25 5.5 C-10.53456149 3.97877133 -13.52824331 3.74790813 -18 5 C-19.79385992 6.4579186 -19.79385992 6.4579186 -21 8 C-21.66 8 -22.32 8 -23 8 C-22.855625 9.258125 -22.71125 10.51625 -22.5625 11.8125 C-22.44068359 12.87404297 -22.44068359 12.87404297 -22.31640625 13.95703125 C-22.02829265 16.19396393 -22.02829265 16.19396393 -21 19 C-18.77332895 19.85356049 -18.77332895 19.85356049 -16.0625 20.375 C-8.91574695 22.17099393 -2.43304262 24.33523903 2.625 29.875 C4.31583152 33.7177989 4.64617492 35.8357616 4 40 C1.68674214 45.13846623 -0.82628952 48.53951412 -6 51 C-13.58358011 52.07781996 -20.71145485 51.63121921 -27 47 C-28.73046875 45.5 -28.73046875 45.5 -30 44 C-29.6875 41.8125 -29.6875 41.8125 -29 40 C-26.09932133 40.41438267 -24.16713243 40.89158978 -21.6875 42.5 C-17.31268038 44.94175979 -13.03807765 45.54348737 -8.1875 44.25 C-5.19589962 42.55913529 -5.19589962 42.55913529 -3 40 C-2.33319632 37.04279372 -2.33319632 37.04279372 -3 34 C-6.67680654 30.41354977 -10.67968999 28.84331473 -15.4375 27.1875 C-20.49865425 25.2665494 -24.97528423 23.54166976 -28.17578125 18.98828125 C-29.83510142 14.98546623 -29.81309317 11.21140566 -29 7 C-26.47806994 1.86273506 -23.46027617 -0.73123207 -18.125 -2.6875 C-11.47803994 -3.66499413 -6.12167431 -2.53537155 0 0 Z " fill="#E4EAEC" transform="translate(272,17)"/>
<path d="M0 0 C5.81050312 5.34663942 7.85828251 11.56621162 8.390625 19.37109375 C8.70792387 27.91037731 8.38891521 35.44888501 4 43 C3.34644531 44.16402344 3.34644531 44.16402344 2.6796875 45.3515625 C-3.12833055 54.84116576 -11.14309753 61.18483014 -21.86474609 64.49316406 C-31.58198567 66.79970298 -42.12733685 66.59727413 -51.125 62.125 C-61.33871721 55.59556333 -69.97987918 46.71532842 -73.6484375 34.9140625 C-74.19363452 31.94576762 -74.05784156 29.00776127 -74 26 C-73.67 26 -73.34 26 -73 26 C-72.34 29.63 -71.68 33.26 -71 37 C-70.08992188 37.23203125 -69.17984375 37.4640625 -68.2421875 37.703125 C-64.51747286 39.19301086 -63.40902705 40.51511191 -61.125 43.75 C-55.11015769 51.64448053 -48.9036715 56.26578256 -39 58 C-28.75972065 59.11039174 -19.93348593 57.09642968 -11.5625 51 C-8.87373133 48.82469229 -6.34883681 46.54457322 -4 44 C-4.33 45.65 -4.66 47.3 -5 49 C-4.38125 48.505 -3.7625 48.01 -3.125 47.5 C-1 46 -1 46 1 46 C2.03762758 43.01163257 3.03227998 40.01173353 4 37 C4.21269531 36.34257813 4.42539063 35.68515625 4.64453125 35.0078125 C7.85707488 23.86791301 5.48605687 14.3374354 1 4 C0.62691369 2.67723944 0.26953585 1.34767923 0 0 Z " fill="#D0D9D9" transform="translate(83,17)"/>
<path d="M0 0 C2.84177941 1.83053666 5.44427737 3.79081603 8 6 C8.763125 6.61875 9.52625 7.2375 10.3125 7.875 C12.34585246 10.43551791 13.23477339 12.90793787 14.27734375 15.984375 C15.03347609 18.2359728 15.03347609 18.2359728 16.625 21.125 C21.23602383 30.76623165 19.26342109 41.41927572 16.0703125 51.15234375 C14.37503165 55.66278075 13.17238225 58.3922611 9 61 C8.34 61 7.68 61 7 61 C7.46658541 56.33414589 8.88006528 52.90002537 11.0625 48.83203125 C14.63411387 41.85250248 13.95354519 31.50349051 12.3515625 23.9375 C8.69085883 13.92531902 1.84080577 7.82053938 -7.66796875 3.27734375 C-15.91219664 0.35466079 -25.41064865 1.46914495 -34 2 C-34 1.34 -34 0.68 -34 0 C-31.03 -0.66 -28.06 -1.32 -25 -2 C-29.47427924 -2.08948558 -33.60563789 -1.85743651 -38 -1 C-29.13368228 -9.86631772 -9.45628531 -5.46268066 0 0 Z " fill="#F1F5F2" transform="translate(71,5)"/>
<path d="M0 0 C2.1953125 0.359375 2.1953125 0.359375 5.2578125 1.609375 C8.42440874 6.10389869 7.57192514 11.03658309 7.1953125 16.359375 C10.8253125 16.359375 14.4553125 16.359375 18.1953125 16.359375 C21.1953125 22.984375 21.1953125 22.984375 21.1953125 26.359375 C20.2053125 26.689375 19.2153125 27.019375 18.1953125 27.359375 C17.7003125 25.874375 17.7003125 25.874375 17.1953125 24.359375 C14.2253125 24.029375 11.2553125 23.699375 8.1953125 23.359375 C7.5353125 21.709375 6.8753125 20.059375 6.1953125 18.359375 C1.11859049 17.51325467 -3.65337968 17.09744409 -8.8046875 17.359375 C-11.17626777 19.3879581 -11.17626777 19.3879581 -11.8046875 23.359375 C-16.0946875 23.359375 -20.3846875 23.359375 -24.8046875 23.359375 C-24.8046875 25.339375 -24.8046875 27.319375 -24.8046875 29.359375 C-25.1346875 29.359375 -25.4646875 29.359375 -25.8046875 29.359375 C-25.85860743 27.56803522 -25.89744321 25.77623601 -25.9296875 23.984375 C-25.95289062 22.98664062 -25.97609375 21.98890625 -26 20.9609375 C-25.8046875 18.359375 -25.8046875 18.359375 -23.8046875 16.359375 C-20.765625 16.1640625 -20.765625 16.1640625 -17.1796875 16.234375 C-15.39691406 16.26144531 -15.39691406 16.26144531 -13.578125 16.2890625 C-12.66289063 16.31226563 -11.74765625 16.33546875 -10.8046875 16.359375 C-10.85109375 15.53953125 -10.8975 14.7196875 -10.9453125 13.875 C-10.98140625 12.79734375 -11.0175 11.7196875 -11.0546875 10.609375 C-11.10109375 9.54203125 -11.1475 8.4746875 -11.1953125 7.375 C-10.8046875 4.359375 -10.8046875 4.359375 -9.06640625 2 C-5.89170142 -0.3028947 -3.81042352 -0.22636179 0 0 Z " fill="#F8FDFD" transform="translate(51.8046875,15.640625)"/>
<path d="M0 0 C4.07166495 2.90833211 7.01178079 6.03534238 8.625 10.875 C8.71682942 12.41449329 8.75502352 13.95777855 8.75 15.5 C8.75386719 16.69496094 8.75386719 16.69496094 8.7578125 17.9140625 C8.625 19.875 8.625 19.875 7.625 20.875 C4.34319211 21.20781492 1.04652094 21.19984546 -2.25 21.25 C-3.17425781 21.28738281 -4.09851563 21.32476562 -5.05078125 21.36328125 C-7.5904673 21.39645567 -9.88506622 21.38175982 -12.375 20.875 C-14.5078125 18.3515625 -14.5078125 18.3515625 -15.375 15.875 C-11.70112505 15.02201624 -8.3302607 14.76710529 -4.5625 14.8125 C-3.09876953 14.82603516 -3.09876953 14.82603516 -1.60546875 14.83984375 C-0.50138672 14.85724609 -0.50138672 14.85724609 0.625 14.875 C-1.00625535 10.05907177 -1.00625535 10.05907177 -4.25 6.375 C-6.9041331 5.75049809 -8.77051333 6.15153148 -11.375 6.875 C-10.281875 6.813125 -9.18875 6.75125 -8.0625 6.6875 C-4.375 6.875 -4.375 6.875 -2.4375 8.125 C-1.375 9.875 -1.375 9.875 -1.375 13.875 C-5.995 13.875 -10.615 13.875 -15.375 13.875 C-15.045 12.225 -14.715 10.575 -14.375 8.875 C-15.365 8.545 -16.355 8.215 -17.375 7.875 C-17.045 6.555 -16.715 5.235 -16.375 3.875 C-17.035 3.545 -17.695 3.215 -18.375 2.875 C-18.705 3.535 -19.035 4.195 -19.375 4.875 C-19.375 3.885 -19.375 2.895 -19.375 1.875 C-14.23876322 -2.90701356 -6.2214729 -2.0738243 0 0 Z M-21.375 3.875 C-21.375 4.865 -21.375 5.855 -21.375 6.875 C-22.365 7.37 -22.365 7.37 -23.375 7.875 C-22.715 6.555 -22.055 5.235 -21.375 3.875 Z " fill="#F9FBFB" transform="translate(177.375,29.125)"/>
<path d="M0 0 C0 3 0 3 -2 5.6875 C-6.02850541 8.79280625 -8.03274907 8.42095347 -13 8 C-13.33 9.65 -13.66 11.3 -14 13 C-11.8128711 14.32789969 -10.52279544 15.04752686 -7.9375 14.8125 C-5.91158205 14.13659415 -5.91158205 14.13659415 -4.6875 12.4375 C-2.01698232 10.16261457 0.63523508 10.80954161 4 11 C4 11.66 4 12.32 4 13 C3.34 13 2.68 13 2 13 C1.95875 14.051875 1.9175 15.10375 1.875 16.1875 C0.96442307 20.15501377 0.06279711 21.50263113 -3.19140625 23.875 C-6.35609711 25.84353341 -9.59154825 27.4966788 -13 29 C-13.9075 29.4125 -14.815 29.825 -15.75 30.25 C-20.80182015 31.41580465 -25.83905157 31.15031889 -31 31 C-31.33 30.34 -31.66 29.68 -32 29 C-30.35 29 -28.7 29 -27 29 C-26.65373409 25.99969942 -26.65373409 25.99969942 -28.5 24.4375 C-28.995 23.963125 -29.49 23.48875 -30 23 C-30 22.34 -30 21.68 -30 21 C-26.37 21 -22.74 21 -19 21 C-18.67 19.68 -18.34 18.36 -18 17 C-17.67 16.34 -17.34 15.68 -17 15 C-16.77377919 13.29636178 -16.59111527 11.58671299 -16.4375 9.875 C-16.35371094 8.96492188 -16.26992188 8.05484375 -16.18359375 7.1171875 C-16.12300781 6.41851562 -16.06242187 5.71984375 -16 5 C-15.34773438 4.97421875 -14.69546875 4.9484375 -14.0234375 4.921875 C-8.11925307 4.53871259 -4.60333137 3.75534928 0 0 Z " fill="#216482" transform="translate(75,45)"/>
<path d="M0 0 C0.66 0 1.32 0 2 0 C2 3.96 2 7.92 2 12 C0.62714844 12.05607422 0.62714844 12.05607422 -0.7734375 12.11328125 C-1.96195313 12.17902344 -3.15046875 12.24476562 -4.375 12.3125 C-5.55835937 12.37050781 -6.74171875 12.42851563 -7.9609375 12.48828125 C-8.96382812 12.65714844 -9.96671875 12.82601562 -11 13 C-11.99 14.485 -11.99 14.485 -13 16 C-13.66 16 -14.32 16 -15 16 C-14.71788123 17.6266848 -14.42397625 19.25132896 -14.125 20.875 C-13.88136719 22.23238281 -13.88136719 22.23238281 -13.6328125 23.6171875 C-13.16955297 26.16505988 -13.16955297 26.16505988 -11 28 C-10.60235737 29.98821313 -10.26224651 31.98944339 -10 34 C-10.99 34.66 -11.98 35.32 -13 36 C-13 35.34 -13 34.68 -13 34 C-13.66 34 -14.32 34 -15 34 C-15 37.3 -15 40.6 -15 44 C-20.94119518 38.26367362 -23.97553698 33.17023675 -24.265625 24.80859375 C-24.27086141 23.3515626 -24.26554088 21.89445768 -24.25 20.4375 C-24.25773437 19.70853516 -24.26546875 18.97957031 -24.2734375 18.22851562 C-24.25739185 13.77183661 -23.67116317 10.19780272 -22 6 C-21.34 6 -20.68 6 -20 6 C-19.67 6.66 -19.34 7.32 -19 8 C-18.34 7.67 -17.68 7.34 -17 7 C-16.67 8.32 -16.34 9.64 -16 11 C-15.01 11 -14.02 11 -13 11 C-11.68 11 -10.36 11 -9 11 C-9 10.01 -9 9.02 -9 8 C-7.6078125 7.9690625 -7.6078125 7.9690625 -6.1875 7.9375 C-2.99303786 7.37155641 -2.99303786 7.37155641 -1.93359375 5.375 C-1.20025229 3.61781467 -0.59224075 1.80962451 0 0 Z " fill="#30B8BE" transform="translate(39,20)"/>
<path d="M0 0 C0.99 0.33 1.98 0.66 3 1 C3 1.66 3 2.32 3 3 C3.66 3 4.32 3 5 3 C7.88628929 8.77257859 6.6839247 18.98181058 5.28125 25.171875 C3.40710871 30.15950908 1.08665127 33.59445727 -3 37 C-2.125 31.125 -2.125 31.125 -1 30 C-3.832168 29.66551741 -3.832168 29.66551741 -7 30 C-8.35308313 31.31328657 -9.68870078 32.64499081 -11 34 C-14.07435378 33.81367553 -15.37371096 32.75085936 -18 31 C-18.1875 27.875 -18.1875 27.875 -18 25 C-17.39671875 25.05800781 -16.7934375 25.11601563 -16.171875 25.17578125 C-13.70088789 25.31527246 -11.45284913 25.34618525 -9 25 C-6.33172123 22.85445315 -6.33172123 22.85445315 -5 20 C-5 19.01 -5 18.02 -5 17 C-4.87625 15.72125 -4.7525 14.4425 -4.625 13.125 C-4.59615659 10.51947824 -4.66816895 9.40557129 -6.3359375 7.3671875 C-8.16565185 5.8176297 -8.16565185 5.8176297 -11 4 C-9.1875 3.3125 -9.1875 3.3125 -7 3 C-6 4 -5 5 -4 6 C-1.37429296 6.25069913 -1.37429296 6.25069913 1 6 C1.33 4.68 1.66 3.36 2 2 C1.34 2 0.68 2 0 2 C0 1.34 0 0.68 0 0 Z " fill="#187694" transform="translate(79,27)"/>
<path d="M0 0 C0.66 0.66 1.32 1.32 2 2 C1.625 4.125 1.625 4.125 1 6 C0.31292969 6.09796875 -0.37414062 6.1959375 -1.08203125 6.296875 C-1.98308594 6.44640625 -2.88414062 6.5959375 -3.8125 6.75 C-4.70582031 6.88921875 -5.59914063 7.0284375 -6.51953125 7.171875 C-9.66269343 8.22124568 -10.33132856 9.1571651 -12 12 C-12.59438043 15.18603938 -12.59438043 15.18603938 -12.73046875 18.734375 C-12.81103516 20.02988281 -12.89160156 21.32539062 -12.97460938 22.66015625 C-13.04586876 24.02342207 -13.11682852 25.38670358 -13.1875 26.75 C-13.26893077 28.12898072 -13.35159961 29.50788893 -13.43554688 30.88671875 C-13.63589596 34.25729756 -13.82354861 37.62809946 -14 41 C-15.98 41.495 -15.98 41.495 -18 42 C-20.43250944 38.35123584 -20.28948305 35.62771884 -20.265625 31.41015625 C-20.26753845 30.66922226 -20.2694519 29.92828827 -20.27142334 29.16490173 C-20.27278333 27.5989447 -20.26909984 26.03297633 -20.26074219 24.46704102 C-20.25005483 22.07477352 -20.26063554 19.68325954 -20.2734375 17.29101562 C-20.27211557 15.76822751 -20.2695525 14.24543987 -20.265625 12.72265625 C-20.26967346 12.00900406 -20.27372192 11.29535187 -20.27789307 10.56007385 C-20.24328728 6.87834455 -20.02841003 4.12973394 -18 1 C-17.01 1 -16.02 1 -15 1 C-14.34 1.99 -13.68 2.98 -13 4 C-12.154375 3.34 -11.30875 2.68 -10.4375 2 C-6.53481348 -0.27065397 -4.43850516 -0.51213521 0 0 Z " fill="#DEE5E7" transform="translate(375,26)"/>
<path d="M0 0 C11.72510036 -0.62626649 11.72510036 -0.62626649 16.5625 1.75 C17.7690625 2.86375 17.7690625 2.86375 19 4 C19.763125 4.66 20.52625 5.32 21.3125 6 C24.30085377 9.54175262 24.13703839 13.17912122 24.125 17.6875 C24.12886719 19.14736328 24.12886719 19.14736328 24.1328125 20.63671875 C24 23 24 23 23 24 C21.21928754 24.08726223 19.4351686 24.10699041 17.65234375 24.09765625 C16.57275391 24.09443359 15.49316406 24.09121094 14.38085938 24.08789062 C13.24455078 24.07951172 12.10824219 24.07113281 10.9375 24.0625 C9.79732422 24.05798828 8.65714844 24.05347656 7.48242188 24.04882812 C4.65489649 24.03699747 1.8274736 24.0205141 -1 24 C0.24976756 27.65316671 0.67098753 28.78065836 4 31 C6.12702359 31.06263899 6.12702359 31.06263899 8.375 30.6875 C9.17035156 30.584375 9.96570313 30.48125 10.78515625 30.375 C13.12138578 30.02245797 13.12138578 30.02245797 15.8125 29.1875 C18 29 18 29 20.375 30.6875 C22 33 22 33 22.1875 35 C19.67309109 39.23479396 15.16000522 40.69925791 10.625 41.875 C2.80526192 42.14464614 -2.41232366 40.23600494 -8.56640625 35.4375 C-10 34 -10 34 -10 32 C-9.34 32 -8.68 32 -8 32 C-7.34 32.99 -6.68 33.98 -6 35 C-5.34 35 -4.68 35 -4 35 C-4.020625 34.2575 -4.04125 33.515 -4.0625 32.75 C-3.98126624 29.17571452 -3.1263636 26.37909079 -2 23 C5.92 22.67 13.84 22.34 22 22 C22.34642564 13.55743989 22.34642564 13.55743989 19 7 C14.59944906 2.92949038 11.1858118 1.9211845 5.3125 1.4375 C4.31863281 1.35371094 3.32476562 1.26992188 2.30078125 1.18359375 C1.16189453 1.09271484 1.16189453 1.09271484 0 1 C0 0.67 0 0.34 0 0 Z " fill="#E5E9E7" transform="translate(163,27)"/>
<path d="M0 0 C1.71316406 -0.02513672 1.71316406 -0.02513672 3.4609375 -0.05078125 C6.87418799 0.34111047 8.31276175 0.78954053 10.625 3.3125 C10.625 4.6325 10.625 5.9525 10.625 7.3125 C12.048125 7.2815625 12.048125 7.2815625 13.5 7.25 C16.625 7.3125 16.625 7.3125 18.625 8.3125 C18.625 9.3025 18.625 10.2925 18.625 11.3125 C14.335 11.3125 10.045 11.3125 5.625 11.3125 C4.965 13.9525 4.305 16.5925 3.625 19.3125 C1.975 19.6425 0.325 19.9725 -1.375 20.3125 C-4.375 14.6875 -4.375 14.6875 -4.375 11.3125 C-8.665 11.3125 -12.955 11.3125 -17.375 11.3125 C-17.375 9.9925 -17.375 8.6725 -17.375 7.3125 C-14.735 7.3125 -12.095 7.3125 -9.375 7.3125 C-9.25125 6.52875 -9.1275 5.745 -9 4.9375 C-7.73170102 -0.38935572 -4.88704536 0.01647319 0 0 Z " fill="#3B7985" transform="translate(49.375,31.6875)"/>
<path d="M0 0 C1.9375 0.625 1.9375 0.625 4 2 C4.62890625 5.0859375 4.62890625 5.0859375 5 8 C3.24623047 8.16435547 3.24623047 8.16435547 1.45703125 8.33203125 C-0.09121194 8.49154721 -1.63938558 8.65173914 -3.1875 8.8125 C-3.95642578 8.88275391 -4.72535156 8.95300781 -5.51757812 9.02539062 C-10.01684501 9.50814458 -13.32557935 10.13663189 -17 13 C-18.45291273 15.46255685 -18.45291273 15.46255685 -19 18 C-18.67 18.66 -18.34 19.32 -18 20 C-17.071875 19.7525 -17.071875 19.7525 -16.125 19.5 C-14 19 -14 19 -12 19 C-10.36323743 17.0399719 -10.36323743 17.0399719 -9 15 C-8.34 15.33 -7.68 15.66 -7 16 C-7.33 16.33 -7.66 16.66 -8 17 C-8.04063832 18.66617115 -8.042721 20.33388095 -8 22 C-4.62563814 22.33380814 -4.62563814 22.33380814 -1 22 C1.05945016 20.36549876 1.05945016 20.36549876 2 18 C2 16.68 2 15.36 2 14 C2.66 14 3.32 14 4 14 C4.32105822 17.53164047 4.48213712 19.35715051 2.3125 22.25 C-0.05716504 24.04326003 -2.23747924 24.95472188 -5 26 C-5.33 26.66 -5.66 27.32 -6 28 C-4.20800528 28.78282648 -4.20800528 28.78282648 -2 29 C-0.63266972 28.04701223 0.70264493 27.04625409 2 26 C2.99 26 3.98 26 5 26 C5.66 27.65 6.32 29.3 7 31 C6.01 30.67 5.02 30.34 4 30 C4 29.34 4 28.68 4 28 C2.948125 28.639375 1.89625 29.27875 0.8125 29.9375 C-3.00926401 32.07341602 -5.70540061 33.46718871 -10.16796875 32.55859375 C-13.86104982 31.50428839 -16.55493682 30.35822158 -19.5625 27.9375 C-21.69337699 23.58309919 -21.85271374 19.75083368 -21 15 C-18.1154469 9.8822445 -14.81181984 8.01318457 -9.3515625 6.4609375 C-5.23492962 5.65402275 -0.85267871 5.07366064 3 7 C1.60240095 3.45481116 1.60240095 3.45481116 0 0 Z " fill="#E8EDED" transform="translate(209,36)"/>
<path d="M0 0 C0.33 0 0.66 0 1 0 C1.66 3.63 2.32 7.26 3 11 C3.91007813 11.23203125 4.82015625 11.4640625 5.7578125 11.703125 C9.48252714 13.19301086 10.59097295 14.51511191 12.875 17.75 C18.83021374 25.56621803 25.12311419 30.45551983 35 32 C43.55793764 32.54295073 51.69677813 32.37234911 60 30 C58.875 31.9375 58.875 31.9375 57 34 C53.8125 34.75 53.8125 34.75 51 35 C51 35.66 51 36.32 51 37 C39.00180096 37.70948615 27.32068325 37.34737059 17.203125 29.95703125 C15.70115312 28.60967412 14.23645899 27.21828018 12.83203125 25.76953125 C11.12089534 23.91360435 11.12089534 23.91360435 8.9609375 23.09765625 C6.1390462 21.51807168 5.29237749 19.46301699 3.8125 16.625 C3.04873047 15.19027344 3.04873047 15.19027344 2.26953125 13.7265625 C0.06094322 8.98319498 -0.10077526 5.24031359 0 0 Z " fill="#D8E6E7" transform="translate(9,43)"/>
<path d="M0 0 C3.66496684 2.89158002 4.83069618 4.20557437 5.8125 8.8125 C5.874375 9.864375 5.93625 10.91625 6 12 C5.34 12 4.68 12 4 12 C4 14.31 4 16.62 4 19 C3.42032471 19.0093457 2.84064941 19.01869141 2.2434082 19.02832031 C-0.40106946 19.0822407 -3.04381893 19.16584129 -5.6875 19.25 C-7.05551758 19.27126953 -7.05551758 19.27126953 -8.45117188 19.29296875 C-12.77191384 19.45008664 -15.35008457 19.59472954 -19.08203125 21.921875 C-21.58989488 24.63915291 -21.95966252 25.57242267 -22.3125 29.3125 C-21.87539805 34.47030299 -19.52359043 36.47640957 -16 40 C-18.89094238 39.69025617 -20.04691751 38.95829554 -22.25 37 C-24.58909313 32.99012606 -24.70015152 29.55098487 -24 25 C-22.45073805 21.15451053 -20.71739862 19.85869931 -17 18 C-12.93591877 16.78149878 -8.95645188 16.88919269 -4.75 16.9375 C-4.00492187 16.94201172 -3.25984375 16.94652344 -2.4921875 16.95117188 C-0.6614236 16.96290754 1.16929873 16.9808415 3 17 C2.60246179 15.53633658 2.18118616 14.0791065 1.75 12.625 C1.51796875 11.81289063 1.2859375 11.00078125 1.046875 10.1640625 C0.16706389 7.89555652 0.16706389 7.89555652 -1.82421875 6.7265625 C-4.19295554 5.93556601 -6.06899318 5.73312347 -8.5625 5.75 C-9.32691406 5.74484375 -10.09132813 5.7396875 -10.87890625 5.734375 C-13.29982762 5.8770439 -13.29982762 5.8770439 -16 8 C-18.5625 7.875 -18.5625 7.875 -21 7 C-22.3125 4.9375 -22.3125 4.9375 -23 3 C-15.76905553 -0.54168709 -7.94983501 -1.35316341 0 0 Z " fill="#E5ECED" transform="translate(341,27)"/>
<path d="M0 0 C0.29761088 2.92650699 0.49179901 5.14439285 0 8 C-3.19719039 11.85302432 -5.6413082 13.21820532 -10.5625 14 C-13.53195551 14.16051111 -15.17727582 13.94211402 -18.0625 13 C-20 11 -20 11 -20.5 7.5 C-20 4 -20 4 -18.875 2.125 C-13.41477275 -1.15113635 -6.14825871 -0.09845966 0 0 Z " fill="#FCFDFE" transform="translate(343,49)"/>
<path d="M0 0 C5.03359633 2.3843351 8.49996787 5.99993573 11 11 C11.06996014 12.70702735 11.08440154 14.41668003 11.0625 16.125 C11.05347656 17.03507812 11.04445313 17.94515625 11.03515625 18.8828125 C11.02355469 19.58148438 11.01195312 20.28015625 11 21 C10.01 21 9.02 21 8 21 C8 18.36 8 15.72 8 13 C7.34 14.98 6.68 16.96 6 19 C-2.58 19 -11.16 19 -20 19 C-18.59047619 9.13333333 -18.59047619 9.13333333 -13.875 5.25 C-9.97768109 3.55551352 -6.21148594 3.26608517 -2 3 C-2 2.34 -2 1.68 -2 1 C-8.15568076 1.93101933 -13.60845743 2.79421793 -19 6 C-18.0737192 3.68429801 -17.42878383 2.28319676 -15.3203125 0.890625 C-10.46006046 -0.97492629 -5.10667592 -0.51511924 0 0 Z M-17.375 11 C-18.19885 13.28708968 -18.19885 13.28708968 -18 17 C-10.41 17 -2.82 17 5 17 C4.68283702 10.24493324 4.68283702 10.24493324 1.4375 7.0625 C-1.65387483 4.82366259 -4.26103712 4.32090287 -8.0390625 4.57421875 C-12.13105549 5.46271922 -15.02939354 7.58820878 -17.375 11 Z " fill="#E3E9EB" transform="translate(399,27)"/>
<path d="M0 0 C0 3 0 3 -1 5.4375 C-2.65140641 11.32063532 -3.51771893 18.25718146 -0.48046875 23.74609375 C0.25236328 24.86177734 0.25236328 24.86177734 1 26 C1 26.66 1 27.32 1 28 C1.99 28 2.98 28 4 28 C3.34 26.02 2.68 24.04 2 22 C3.49739583 23.26953125 4.99479167 24.5390625 6.4921875 25.80859375 C9.59885445 28.26334354 11.98202472 28.16370431 15.875 28.1875 C16.92429687 28.20167969 17.97359375 28.21585938 19.0546875 28.23046875 C21.99917236 28.00006476 23.44554603 27.35204363 26 26 C27.32 26 28.64 26 30 26 C30.495 27.98 30.495 27.98 31 30 C26.11350307 33.98159009 21.31084834 35.68963041 15 36 C7.40768712 34.66230678 2.06059035 32.05400393 -2.63671875 25.83203125 C-4.37938892 22.21187115 -4.44070154 18.99364227 -4.375 15.0625 C-4.38660156 14.37220703 -4.39820313 13.68191406 -4.41015625 12.97070312 C-4.38249443 8.10683352 -3.57209425 3.57209425 0 0 Z " fill="#E2E8E9" transform="translate(379,33)"/>
<path d="M0 0 C0.99 0 1.98 0 3 0 C3.03758423 1.01368652 3.03758423 1.01368652 3.07592773 2.04785156 C3.19210742 5.1154168 3.31473437 8.18269158 3.4375 11.25 C3.47681641 12.31347656 3.51613281 13.37695312 3.55664062 14.47265625 C3.59853516 15.49746094 3.64042969 16.52226562 3.68359375 17.578125 C3.72025146 18.52075195 3.75690918 19.46337891 3.79467773 20.43457031 C3.91457139 22.9208529 3.91457139 22.9208529 4.52734375 24.9453125 C5.17979143 27.78157268 5.00221906 30.39217321 4.87890625 33.296875 C4.83056641 34.50214844 4.78222656 35.70742188 4.73242188 36.94921875 C4.67634766 38.20347656 4.62027344 39.45773438 4.5625 40.75 C4.51029297 42.01972656 4.45808594 43.28945313 4.40429688 44.59765625 C4.27468016 47.73202407 4.13971529 50.86606874 4 54 C2.02 54.495 2.02 54.495 0 55 C0 36.85 0 18.7 0 0 Z " fill="#F3FBFC" transform="translate(281,11)"/>
<path d="M0 0 C3.69230769 0.69230769 3.69230769 0.69230769 5 2 C5.09862603 3.39174359 5.1307898 4.78836143 5.1328125 6.18359375 C5.13410156 7.02857422 5.13539063 7.87355469 5.13671875 8.74414062 C5.13285156 9.63294922 5.12898438 10.52175781 5.125 11.4375 C5.12886719 12.32244141 5.13273437 13.20738281 5.13671875 14.11914062 C5.13542969 14.96541016 5.13414062 15.81167969 5.1328125 16.68359375 C5.13168457 17.46275146 5.13055664 18.24190918 5.12939453 19.04467773 C5 21 5 21 4 23 C4.763125 22.360625 5.52625 21.72125 6.3125 21.0625 C10.23500061 18.05220883 13.1755771 17.8209474 18 17.75 C19.051875 17.72421875 20.10375 17.6984375 21.1875 17.671875 C24 18 24 18 25.875 19.515625 C26.24625 20.00546875 26.6175 20.4953125 27 21 C26.44183594 20.84015625 25.88367188 20.6803125 25.30859375 20.515625 C20.0476468 19.34059116 14.76177802 19.15434655 9.875 21.5 C9.25625 21.995 8.6375 22.49 8 23 C9.65 23 11.3 23 13 23 C11.625 24.5 11.625 24.5 10 26 C9.34 26 8.68 26 8 26 C6.23349751 29.83362031 5.71028724 32.96861491 5.5859375 37.17578125 C5.54726563 38.33271484 5.50859375 39.48964844 5.46875 40.68164062 C5.4378125 41.87982422 5.406875 43.07800781 5.375 44.3125 C5.33632813 45.53001953 5.29765625 46.74753906 5.2578125 48.00195312 C5.16371998 51.00115228 5.07807791 54.00034823 5 57 C3.68 57.66 2.36 58.32 1 59 C-1 57 -1 57 -1.24723816 54.64024353 C-1.24581314 53.65286697 -1.24438812 52.66549042 -1.24291992 51.64819336 C-1.24599655 50.53041 -1.24907318 49.41262665 -1.25224304 48.26097107 C-1.24505753 47.04949905 -1.23787201 45.83802704 -1.23046875 44.58984375 C-1.23001053 43.3520668 -1.22955231 42.11428986 -1.2290802 40.83900452 C-1.2252786 37.54641953 -1.21225824 34.25402641 -1.19561768 30.96148682 C-1.18216164 27.60648353 -1.18534184 24.2515137 -1.18554688 20.89648438 C-1.18063168 18.35676883 -1.17480335 15.81705485 -1.16796875 13.27734375 C-1.16685593 12.0638475 -1.1657431 10.85035126 -1.16459656 9.6000824 C-1.15821671 8.4854512 -1.15183685 7.37082001 -1.14526367 6.22241211 C-1.14145187 5.23583115 -1.13764008 4.24925018 -1.13371277 3.23277283 C-1 1 -1 1 0 0 Z M0 2 C0 20.15 0 38.3 0 57 C1.98 56.505 1.98 56.505 4 56 C4.16754147 51.90682137 4.32810824 47.81343505 4.48217773 43.71972656 C4.53559149 42.32674778 4.59092043 40.93384107 4.64819336 39.54101562 C4.73012069 37.54056398 4.80462098 35.5398125 4.87890625 33.5390625 C4.9260376 32.33459473 4.97316895 31.13012695 5.02172852 29.88916016 C5.21254865 27.05803529 5.21254865 27.05803529 4 25 C3.84733388 23.26131256 3.75067404 21.51752499 3.68359375 19.7734375 C3.64169922 18.7421875 3.59980469 17.7109375 3.55664062 16.6484375 C3.51732422 15.56820313 3.47800781 14.48796875 3.4375 13.375 C3.39431641 12.28703125 3.35113281 11.1990625 3.30664062 10.078125 C3.2003547 7.3855483 3.09831943 4.69287747 3 2 C2.01 2 1.02 2 0 2 Z " fill="#D7DEE0" transform="translate(281,9)"/>
<path d="M0 0 C2.17729628 1.58223014 3.38120831 2.80306841 5 5 C5 5.99 5 6.98 5 8 C3.0625 7.625 3.0625 7.625 1 7 C0.505 6.01 0.505 6.01 0 5 C-10.53525226 0.39742486 -22.80192115 1.70853906 -34 2 C-34 1.34 -34 0.68 -34 0 C-31.03 -0.66 -28.06 -1.32 -25 -2 C-29.47427924 -2.08948558 -33.60563789 -1.85743651 -38 -1 C-29.217817 -9.782183 -9.34710044 -5.56880822 0 0 Z " fill="#E9F9F9" transform="translate(71,5)"/>
<path d="M0 0 C6.43999908 0.51519993 10.43669191 2.43669191 15 7 C15.34516961 10.00790664 15.56328613 12.09433588 15 15 C12.625 17.875 12.625 17.875 10 20 C9.34 20.66 8.68 21.32 8 22 C12.43090471 20.79157144 14.98112756 19.48331435 18 16 C16.95839096 19.74979255 15.49635231 22.22363313 12.09765625 24.26953125 C5.84292097 26.44762342 -1.67396046 26.04179489 -7.625 23.1875 C-10.11432644 21.76891004 -12.14321059 20.1938681 -14 18 C-13.6875 15.8125 -13.6875 15.8125 -13 14 C-10.09932133 14.41438267 -8.16713243 14.89158978 -5.6875 16.5 C-1.31268038 18.94175979 2.96192235 19.54348737 7.8125 18.25 C10.80410038 16.55913529 10.80410038 16.55913529 13 14 C13.66680368 11.04279372 13.66680368 11.04279372 13 8 C9.38365662 4.04462443 4.95665377 2.68022162 0 1 C0 0.67 0 0.34 0 0 Z " fill="#DFE5E5" transform="translate(256,43)"/>
<path d="M0 0 C0.69287109 0.00451172 1.38574219 0.00902344 2.09960938 0.01367188 C3.79561068 0.02536844 5.49156703 0.04330076 7.1875 0.0625 C4.58628001 3.96432998 2.64850304 3.98570616 -1.8125 5.0625 C-3.0190625 5.371875 -3.0190625 5.371875 -4.25 5.6875 C-4.765625 5.81125 -5.28125 5.935 -5.8125 6.0625 C-5.8125 6.7225 -5.8125 7.3825 -5.8125 8.0625 C-9.43447194 9.55390021 -13.08816618 10.8499262 -16.8125 12.0625 C-16.8125 12.7225 -16.8125 13.3825 -16.8125 14.0625 C-18.7925 14.0625 -20.7725 14.0625 -22.8125 14.0625 C-22.8125 10.0625 -22.8125 10.0625 -20.5625 7.375 C-17.96341548 5.1894062 -16.95129615 4.73509917 -13.8125 4.0625 C-13.4825 3.0725 -13.1525 2.0825 -12.8125 1.0625 C-8.52952469 0.00630997 -4.38264354 -0.05452092 0 0 Z " fill="#36DAD7" transform="translate(47.8125,7.9375)"/>
<path d="M0 0 C2.6371903 0.70692744 5.27139094 1.42246652 7.90234375 2.15234375 C9.86712341 2.68999468 11.83813164 3.20575493 13.81640625 3.69140625 C19.06331939 5.05982622 22.10534164 6.09166626 25 11 C26.60127074 14.20254147 26.40701607 16.45314564 26 20 C23.64008616 24.06656434 21.01249925 26.53269265 16.75 28.5 C14 29 14 29 12 28 C12.49371094 27.66226563 12.98742187 27.32453125 13.49609375 26.9765625 C14.13675781 26.53054687 14.77742188 26.08453125 15.4375 25.625 C16.07558594 25.18414062 16.71367187 24.74328125 17.37109375 24.2890625 C19.13740928 23.07839147 19.13740928 23.07839147 20 21 C20.50646546 16.92963569 20.50646546 16.92963569 20 13 C16.53296503 9.55222633 12.94641427 8.02961325 8.375 6.4375 C1.47692094 4.03027561 1.47692094 4.03027561 -1 1 C-0.67 0.67 -0.34 0.34 0 0 Z " fill="#EBF2F4" transform="translate(250,37)"/>
<path d="M0 0 C1.16402344 0.01933594 1.16402344 0.01933594 2.3515625 0.0390625 C4.375 0.375 4.375 0.375 6.375 2.375 C3.375 3.375 3.375 3.375 0.9375 3.3125 C-1.95189871 3.38297314 -3.26194492 3.72624314 -5.625 5.375 C-6.32676588 7.79179707 -6.32676588 7.79179707 -6.375 10.5 C-6.43171875 11.41007812 -6.4884375 12.32015625 -6.546875 13.2578125 C-6.57265625 13.95648438 -6.5984375 14.65515625 -6.625 15.375 C-5.305 15.705 -3.985 16.035 -2.625 16.375 C-3.40875 16.601875 -4.1925 16.82875 -5 17.0625 C-8.24611098 18.32223152 -8.24611098 18.32223152 -9.625 23.375 C-13.915 23.375 -18.205 23.375 -22.625 23.375 C-22.625 25.355 -22.625 27.335 -22.625 29.375 C-22.955 29.375 -23.285 29.375 -23.625 29.375 C-23.67891993 27.58366022 -23.71775571 25.79186101 -23.75 24 C-23.77320312 23.00226562 -23.79640625 22.00453125 -23.8203125 20.9765625 C-23.625 18.375 -23.625 18.375 -21.625 16.375 C-18.5859375 16.1796875 -18.5859375 16.1796875 -15 16.25 C-13.21722656 16.27707031 -13.21722656 16.27707031 -11.3984375 16.3046875 C-10.48320313 16.32789063 -9.56796875 16.35109375 -8.625 16.375 C-8.67140625 15.55515625 -8.7178125 14.7353125 -8.765625 13.890625 C-8.80171875 12.81296875 -8.8378125 11.7353125 -8.875 10.625 C-8.92140625 9.55765625 -8.9678125 8.4903125 -9.015625 7.390625 C-8.625 4.375 -8.625 4.375 -6.8984375 2.0078125 C-4.31797723 0.15449224 -3.13430037 -0.11530871 0 0 Z " fill="#D2F6F7" transform="translate(49.625,15.625)"/>
<path d="M0 0 C2.3125 1 2.3125 1 4 3 C4.45340774 6.1738542 4.7008417 7.99121409 4 11 C1.8125 13.5625 1.8125 13.5625 -1 15 C-3.8125 14.75 -3.8125 14.75 -6 14 C-6 13.34 -6 12.68 -6 12 C-5.34 11.67 -4.68 11.34 -4 11 C-5.65 11.33 -7.3 11.66 -9 12 C-10.48873294 9.63554179 -11.00636486 8.26095932 -10.9375 5.4375 C-10 3 -10 3 -7.75 1.1875 C-4.79500017 -0.08852266 -3.17059815 -0.48778433 0 0 Z " fill="#D5E2E6" transform="translate(423,53)"/>
<path d="M0 0 C4.74824032 1.39654127 8.33279753 3.82338391 11 8 C11.53385563 10.55157772 11.68849262 12.96319366 11.7890625 15.56640625 C11.88248631 18.24809418 11.88248631 18.24809418 13.5625 21.375 C16.62016223 29.0856265 15.075424 37.93432001 14 46 C12.515 46.495 12.515 46.495 11 47 C11.15855469 46.34386719 11.31710938 45.68773437 11.48046875 45.01171875 C13.42761195 33.72414424 13.08069999 22.42361345 6.4921875 12.796875 C2.45120747 7.72215589 -2.17320136 4.74824063 -8 2 C-4.28125 0.8828125 -4.28125 0.8828125 -1.75 1.9375 C-1.1725 2.288125 -0.595 2.63875 0 3 C0 3.66 0 4.32 0 5 C1.32 4.67 2.64 4.34 4 4 C2.68 2.68 1.36 1.36 0 0 Z " fill="#DEF2F4" transform="translate(72,7)"/>
<path d="M0 0 C4 2 4 2 5 3 C5.58968059 10.07616708 5.58968059 10.07616708 3.125 13.9375 C-0.06426489 17.03296298 -1.78993291 17.11807778 -6.125 17.0625 C-7.03507812 17.05347656 -7.94515625 17.04445313 -8.8828125 17.03515625 C-9.93082031 17.01775391 -9.93082031 17.01775391 -11 17 C-10.94199219 17.66386719 -10.88398437 18.32773437 -10.82421875 19.01171875 C-10.59317979 23.53348124 -10.50422477 26.20036254 -12.9375 30.125 C-16.97273093 32.59554955 -20.36721733 32.82418418 -25 32 C-25.99 31.34 -26.98 30.68 -28 30 C-27.67 29.34 -27.34 28.68 -27 28 C-25.9275 28.33 -24.855 28.66 -23.75 29 C-20.00268399 30.1717751 -20.00268399 30.1717751 -16 30 C-15.67 29.01 -15.34 28.02 -15 27 C-14.34 27 -13.68 27 -13 27 C-12.67 23.37 -12.34 19.74 -12 16 C-10.02 15.67 -8.04 15.34 -6 15 C-6 14.34 -6 13.68 -6 13 C-5.34 12.67 -4.68 12.34 -4 12 C-9.445 11.505 -9.445 11.505 -15 11 C-15 10.67 -15 10.34 -15 10 C-10.71 10 -6.42 10 -2 10 C-1.67 9.01 -1.34 8.02 -1 7 C-0.34 7.66 0.32 8.32 1 9 C1.66 9 2.32 9 3 9 C1.515 4.545 1.515 4.545 0 0 Z " fill="#DBF1F4" transform="translate(70,33)"/>
<path d="M0 0 C2.97818426 1.3456036 4.41008762 2.41008762 6.8125 4.8125 C16.38417989 13.12153276 29.93137479 13.82555207 42 14 C42 13.34 42 12.68 42 12 C42.59425781 11.88785156 43.18851563 11.77570313 43.80078125 11.66015625 C51.81796662 9.75249006 56.97143224 5.46697115 63 0 C63 3 63 3 61.7421875 4.61328125 C51.93667485 13.53670804 41.36605267 16.93903154 28.34179688 16.78100586 C17.03281438 16.17547701 8.95633537 10.78635407 1.29296875 2.6015625 C0 1 0 1 0 0 Z " fill="#ADBABE" transform="translate(18,66)"/>
<path d="M0 0 C1.17433594 0.01417969 2.34867188 0.02835938 3.55859375 0.04296875 C5.32396484 0.05263672 5.32396484 0.05263672 7.125 0.0625 C9.99609375 0.23046875 9.99609375 0.23046875 10.99609375 1.23046875 C11.03690158 3.23005239 11.03863731 5.23092129 10.99609375 7.23046875 C9.67609375 7.23046875 8.35609375 7.23046875 6.99609375 7.23046875 C6.33609375 9.54046875 5.67609375 11.85046875 4.99609375 14.23046875 C4.33609375 14.23046875 3.67609375 14.23046875 2.99609375 14.23046875 C-0.00390625 8.48046875 -0.00390625 8.48046875 -0.00390625 6.23046875 C-1.32390625 5.90046875 -2.64390625 5.57046875 -4.00390625 5.23046875 C-4.33390625 6.22046875 -4.66390625 7.21046875 -5.00390625 8.23046875 C-7.97390625 8.23046875 -10.94390625 8.23046875 -14.00390625 8.23046875 C-14.00390625 7.90046875 -14.00390625 7.57046875 -14.00390625 7.23046875 C-11.36390625 7.23046875 -8.72390625 7.23046875 -6.00390625 7.23046875 C-5.88015625 6.44671875 -5.75640625 5.66296875 -5.62890625 4.85546875 C-4.72517838 1.05981168 -3.90862708 0.29988166 0 0 Z " fill="#357988" transform="translate(46.00390625,31.76953125)"/>
<path d="M0 0 C4.79848527 4.26696075 8.64500513 8.96532566 11 15 C11 15.66 11 16.32 11 17 C10.34 17 9.68 17 9 17 C9 16.34 9 15.68 9 15 C8.01 14.67 7.02 14.34 6 14 C5.505 12.515 5.505 12.515 5 11 C4.01 10.67 3.02 10.34 2 10 C1.690625 9.030625 1.38125 8.06125 1.0625 7.0625 C0.33648699 3.92450088 0.33648699 3.92450088 -1.9375 2.8125 C-2.618125 2.544375 -3.29875 2.27625 -4 2 C-4.44601563 1.52304688 -4.89203125 1.04609375 -5.3515625 0.5546875 C-13.05050645 -6.70640182 -28.28322815 -4.25695675 -38 -4 C-28.85716025 -13.14283975 -8.70044113 -6.10596511 0 0 Z " fill="#4DB1B5" transform="translate(73,13)"/>
<path d="M0 0 C0.33 0 0.66 0 1 0 C1.12117188 0.78246094 1.24234375 1.56492188 1.3671875 2.37109375 C1.53476562 3.38300781 1.70234375 4.39492188 1.875 5.4375 C2.03742187 6.44683594 2.19984375 7.45617188 2.3671875 8.49609375 C2.57601563 9.32238281 2.78484375 10.14867187 3 11 C3.66 11.33 4.32 11.66 5 12 C5 12.66 5 13.32 5 14 C8.37088267 11.72584713 8.37088267 11.72584713 10 8 C12.83374881 11.20336822 13.5205537 13.78087253 14 18 C13.01 18.66 12.02 19.32 11 20 C11 19.34 11 18.68 11 18 C10.34 18 9.68 18 9 18 C9 21.3 9 24.6 9 28 C3.19683364 22.39694282 0.1755631 17.84780685 -0.12109375 9.65625 C-0.12459527 6.43485429 -0.08716116 3.22012064 0 0 Z " fill="#249EAE" transform="translate(15,36)"/>
<path d="M0 0 C0.33 0.99 0.66 1.98 1 3 C0.67 3.66 0.34 4.32 0 5 C1.32 5.33 2.64 5.66 4 6 C3.566875 6.78697266 3.566875 6.78697266 3.125 7.58984375 C-1.30510932 16.8346205 -1.39509982 28.08857066 1 38 C-0.984375 36.578125 -0.984375 36.578125 -3 34 C-3.50627389 30.90543827 -3.37696402 27.87526825 -3.25 24.75 C-3.23195313 23.90953125 -3.21390625 23.0690625 -3.1953125 22.203125 C-3.14830798 20.13492605 -3.07656724 18.06731559 -3 16 C-3.99 16 -4.98 16 -6 16 C-6 17.98 -6 19.96 -6 22 C-6.33 22 -6.66 22 -7 22 C-7.90794412 14.0100917 -4.37509115 6.56263673 0 0 Z " fill="#E6F6F5" transform="translate(16,16)"/>
<path d="M0 0 C0.99 0.33 1.98 0.66 3 1 C3 1.66 3 2.32 3 3 C3.66 3 4.32 3 5 3 C6.61863273 6.23726545 6.1845318 9.75956876 6.1875 13.3125 C6.19974609 14.07240234 6.21199219 14.83230469 6.22460938 15.61523438 C6.23570015 19.87039386 5.96104913 23.11665765 4 27 C3.06380187 23.84493858 2.8942877 21.03413498 2.9375 17.75 C2.94652344 16.85796875 2.95554687 15.9659375 2.96484375 15.046875 C2.97644531 14.37140625 2.98804687 13.6959375 3 13 C2.360625 13.185625 1.72125 13.37125 1.0625 13.5625 C0.381875 13.706875 -0.29875 13.85125 -1 14 C-1.33 13.67 -1.66 13.34 -2 13 C-2.66 13.66 -3.32 14.32 -4 15 C-4.3403125 13.4221875 -4.3403125 13.4221875 -4.6875 11.8125 C-5.79360531 7.8402094 -7.88629885 5.70400363 -11 3 C-6.25 3.75 -6.25 3.75 -4 6 C-1.41645782 6.16687448 -1.41645782 6.16687448 1 6 C1.33 4.68 1.66 3.36 2 2 C1.34 2 0.68 2 0 2 C0 1.34 0 0.68 0 0 Z " fill="#2F8EA4" transform="translate(79,27)"/>
<path d="M0 0 C1.485 0.99 1.485 0.99 3 2 C3.29296875 4.8203125 3.29296875 4.8203125 3.1875 8.125 C3.16042969 9.22070312 3.13335937 10.31640625 3.10546875 11.4453125 C3.07066406 12.28835937 3.03585938 13.13140625 3 14 C6.63 14 10.26 14 14 14 C17 20.625 17 20.625 17 24 C16.01 24.33 15.02 24.66 14 25 C13.67 24.01 13.34 23.02 13 22 C10.03 21.67 7.06 21.34 4 21 C3.566875 19.824375 3.566875 19.824375 3.125 18.625 C2.15087746 15.90328368 2.15087746 15.90328368 0 14 C0.66 14 1.32 14 2 14 C1.85866501 12.22880197 1.71176792 10.45804713 1.5625 8.6875 C1.48128906 7.70136719 1.40007813 6.71523438 1.31640625 5.69921875 C1.08187441 2.90624401 1.08187441 2.90624401 0 0 Z " fill="#EFFDFC" transform="translate(56,18)"/>
<path d="M0 0 C0.66 0 1.32 0 2 0 C2 1.65 2 3.3 2 5 C2.99 5 3.98 5 5 5 C4.84152588 5.86061035 4.68305176 6.7212207 4.51977539 7.60791016 C4.02126103 10.86124907 3.79750626 13.98624806 3.68359375 17.2734375 C3.64169922 18.42714844 3.59980469 19.58085938 3.55664062 20.76953125 C3.51732422 21.95933594 3.47800781 23.14914063 3.4375 24.375 C3.39431641 25.58800781 3.35113281 26.80101563 3.30664062 28.05078125 C3.20094487 31.03375032 3.09884679 34.01679742 3 37 C2.01 37 1.02 37 0 37 C0 24.79 0 12.58 0 0 Z " fill="#F5FDFE" transform="translate(357,29)"/>
<path d="M0 0 C2.85999521 2.25394861 3.86631186 4.57338601 5 8 C5.25878906 11.19799805 5.25878906 11.19799805 5.265625 14.76171875 C5.26949219 16.68661133 5.26949219 16.68661133 5.2734375 18.65039062 C5.26715332 19.64389526 5.26715332 19.64389526 5.26074219 20.6574707 C5.24997688 22.69186848 5.2606905 24.72539408 5.2734375 26.75976562 C5.27085937 28.03916016 5.26828125 29.31855469 5.265625 30.63671875 C5.26336914 31.80936279 5.26111328 32.98200684 5.25878906 34.19018555 C5 37 5 37 3 39 C0.375 39.125 0.375 39.125 -2 39 C-1.360625 38.690625 -0.72125 38.38125 -0.0625 38.0625 C1.93610821 37.1654837 1.93610821 37.1654837 3 36 C3.25558038 31.98588464 3.18524213 27.95877096 3.1875 23.9375 C3.20586914 22.25624023 3.20586914 22.25624023 3.22460938 20.54101562 C3.23545106 14.38655331 3.16084831 8.80557031 1 3 C-4.10131512 -1.12589882 -12.79737397 -0.58388918 -19 0 C-22.50829714 0.85715849 -22.50829714 0.85715849 -25 2 C-24.67 3.98 -24.34 5.96 -24 8 C-23.01 8.33 -22.02 8.66 -21 9 C-23.375 8.8125 -23.375 8.8125 -26 8 C-27.3125 5.4375 -27.3125 5.4375 -28 3 C-21.28548091 -5.39314886 -8.89127913 -4.18717215 0 0 Z " fill="#DDE2E4" transform="translate(218,29)"/>
<path d="M0 0 C0.66 0 1.32 0 2 0 C2.32105822 3.53164047 2.48213712 5.35715051 0.3125 8.25 C-2.05716504 10.04326003 -4.23747924 10.95472188 -7 12 C-7.33 12.66 -7.66 13.32 -8 14 C-6.20800528 14.78282648 -6.20800528 14.78282648 -4 15 C-2.63266972 14.04701223 -1.29735507 13.04625409 0 12 C0.99 12 1.98 12 3 12 C3.66 13.65 4.32 15.3 5 17 C4.01 16.67 3.02 16.34 2 16 C2 15.34 2 14.68 2 14 C0.4221875 14.9590625 0.4221875 14.9590625 -1.1875 15.9375 C-5.83387081 18.55399338 -8.48232933 19.37319771 -13.8125 18.0625 C-15.3903125 17.5365625 -15.3903125 17.5365625 -17 17 C-16.01 16.67 -15.02 16.34 -14 16 C-13.34 15.67 -12.68 15.34 -12 15 C-11.16507646 12.57540213 -11.16507646 12.57540213 -11 10 C-11.66 9.34 -12.32 8.68 -13 8 C-13.125 5.375 -13.125 5.375 -13 3 C-11.68 2.34 -10.36 1.68 -9 1 C-9.33 3.31 -9.66 5.62 -10 8 C-6.62563814 8.33380814 -6.62563814 8.33380814 -3 8 C-0.94054984 6.36549876 -0.94054984 6.36549876 0 4 C0 2.68 0 1.36 0 0 Z " fill="#DEE3E2" transform="translate(211,50)"/>
<path d="M0 0 C0.89460938 -0.00128906 1.78921875 -0.00257812 2.7109375 -0.00390625 C3.65195313 -0.00003906 4.59296875 0.00382812 5.5625 0.0078125 C6.97402344 0.00201172 6.97402344 0.00201172 8.4140625 -0.00390625 C9.75597656 -0.00197266 9.75597656 -0.00197266 11.125 0 C11.95128906 0.00112793 12.77757812 0.00225586 13.62890625 0.00341797 C15.5625 0.1328125 15.5625 0.1328125 16.5625 1.1328125 C16.79993476 4.95815033 16.95917966 8.77700479 17.08007812 12.60742188 C17.13131836 13.80915039 17.13131836 13.80915039 17.18359375 15.03515625 C17.2086499 15.77241943 17.23370605 16.50968262 17.25952148 17.26928711 C17.41564702 19.37560519 17.41564702 19.37560519 19.5625 21.1328125 C22.13311311 21.78049043 22.13311311 21.78049043 24.5625 22.1328125 C24.5625 22.4628125 24.5625 22.7928125 24.5625 23.1328125 C19.05711207 23.49983836 19.05711207 23.49983836 16.8815918 21.88549805 C15.24512607 19.71111576 15.21215821 18.59887662 15.26953125 15.90234375 C15.28077026 14.81723511 15.28077026 14.81723511 15.29223633 13.71020508 C15.31954834 12.79779053 15.34686035 11.88537598 15.375 10.9453125 C15.436875 8.0371875 15.49875 5.1290625 15.5625 2.1328125 C9.2925 2.1328125 3.0225 2.1328125 -3.4375 2.1328125 C-3.31925274 7.54782606 -3.31925274 7.54782606 -3.16723633 12.96191406 C-3.12949601 16.38857234 -3.15031421 18.59183462 -4.78125 21.6640625 C-6.4375 23.1328125 -6.4375 23.1328125 -9.125 23.3828125 C-9.888125 23.3003125 -10.65125 23.2178125 -11.4375 23.1328125 C-10.4784375 22.66875 -10.4784375 22.66875 -9.5 22.1953125 C-7.50139179 21.2982962 -7.50139179 21.2982962 -6.4375 20.1328125 C-6.29328846 18.73083848 -6.21063876 17.32238419 -6.15625 15.9140625 C-6.11886719 15.06457031 -6.08148438 14.21507812 -6.04296875 13.33984375 C-6.00816406 12.44652344 -5.97335938 11.55320312 -5.9375 10.6328125 C-5.86890557 8.87222212 -5.79621048 7.11178509 -5.71875 5.3515625 C-5.67331055 4.1749707 -5.67331055 4.1749707 -5.62695312 2.97460938 C-5.25353719 -0.65560946 -3.16912718 0.00432603 0 0 Z " fill="#D5DADB" transform="translate(119.4375,44.8671875)"/>
<path d="M0 0 C-0.61875 0.28875 -1.2375 0.5775 -1.875 0.875 C-4.13325765 1.93720042 -4.13325765 1.93720042 -6 4 C-6.31276421 6.19411601 -6.31276421 6.19411601 -6.2746582 8.75341797 C-6.28419022 9.74139374 -6.29372223 10.72936951 -6.30354309 11.74728394 C-6.30263168 12.81810211 -6.30172028 13.88892029 -6.30078125 14.9921875 C-6.30506638 16.08967316 -6.3093515 17.18715881 -6.31376648 18.31790161 C-6.31951793 20.64307972 -6.32000407 22.96827584 -6.31567383 25.29345703 C-6.31251905 28.85350273 -6.33594573 32.41271371 -6.36132812 35.97265625 C-6.36360152 38.22916562 -6.36430443 40.48567722 -6.36328125 42.7421875 C-6.37709587 44.34234207 -6.37709587 44.34234207 -6.39118958 45.974823 C-6.38496078 46.96910309 -6.37873199 47.96338318 -6.37231445 48.98779297 C-6.37294388 49.86112274 -6.3735733 50.73445251 -6.3742218 51.63424683 C-5.92583889 54.46883127 -4.86937426 55.8647809 -3 58 C-5.3318205 57.0672718 -6.72187721 56.42358932 -8.1184082 54.29663086 C-9.22596651 51.41133564 -9.24244451 49.09435662 -9.23046875 46.00390625 C-9.22942139 44.81450439 -9.22837402 43.62510254 -9.22729492 42.3996582 C-9.2141626 41.133396 -9.20103027 39.86713379 -9.1875 38.5625 C-9.17887939 37.27110107 -9.17025879 35.97970215 -9.16137695 34.64916992 C-9.12557603 30.76561077 -9.06844263 26.88311251 -9 23 C-8.98066406 21.88302734 -8.96132812 20.76605469 -8.94140625 19.61523438 C-8.87914387 16.67974645 -8.79114909 13.74678736 -8.6875 10.8125 C-8.65402466 9.50551147 -8.65402466 9.50551147 -8.61987305 8.17211914 C-8.51171875 5.76953125 -8.51171875 5.76953125 -8 2 C-4.77208445 -0.1519437 -3.71599191 -0.20086443 0 0 Z " fill="#DEE4E3" transform="translate(235,9)"/>
<path d="M0 0 C0.66 0.33 1.32 0.66 2 1 C1.67 2.32 1.34 3.64 1 5 C0.34 5 -0.32 5 -1 5 C-1 6.32 -1 7.64 -1 9 C-2.57421875 10.88671875 -2.57421875 10.88671875 -4.6875 12.6875 C-5.37199219 13.28949219 -6.05648438 13.89148438 -6.76171875 14.51171875 C-9.21167096 16.14074457 -11.10537632 16.61979549 -14 17 C-12.1162448 8.99404041 -8.73331565 5.18665553 -1.8046875 0.8203125 C-1.20914062 0.54960938 -0.61359375 0.27890625 0 0 Z " fill="#F6FDFC" transform="translate(29,5)"/>
<path d="M0 0 C3 3.75 3 3.75 3 6 C6.14930893 7.04976964 8.38814456 7.10131595 11.6875 7.0625 C12.68136719 7.05347656 13.67523438 7.04445313 14.69921875 7.03515625 C15.45847656 7.02355469 16.21773437 7.01195313 17 7 C17 7.66 17 8.32 17 9 C13.37 9 9.74 9 6 9 C6.33 10.32 6.66 11.64 7 13 C7.99 13.33 8.98 13.66 10 14 C9.67 14.99 9.34 15.98 9 17 C3.70819739 17.91237976 -0.00174442 18.43817345 -5 16 C-5.33 15.01 -5.66 14.02 -6 13 C-2.7 13.33 0.6 13.66 4 14 C3.34 12.68 2.68 11.36 2 10 C1.65772583 8.66893378 1.32248257 7.33599921 1 6 C0.67 5.67 0.34 5.34 0 5 C-0.04063832 3.33382885 -0.042721 1.66611905 0 0 Z " fill="#2B758E" transform="translate(39,57)"/>
<path d="M0 0 C3.65316671 1.24976756 4.78065836 1.67098753 7 5 C7.39013716 6.9896995 7.73202649 8.99019869 8 11 C8.99 11 9.98 11 11 11 C10.67 12.65 10.34 14.3 10 16 C9.01 16 8.02 16 7 16 C4 10.375 4 10.375 4 7 C-0.29 7 -4.58 7 -9 7 C-9 6.01 -9 5.02 -9 4 C-6.03 4 -3.06 4 0 4 C0 2.68 0 1.36 0 0 Z " fill="#2F7E8A" transform="translate(41,36)"/>
<path d="M0 0 C0.66 0 1.32 0 2 0 C2 3.96 2 7.92 2 12 C0.62714844 12.05607422 0.62714844 12.05607422 -0.7734375 12.11328125 C-1.96195313 12.17902344 -3.15046875 12.24476562 -4.375 12.3125 C-5.55835938 12.37050781 -6.74171875 12.42851563 -7.9609375 12.48828125 C-8.96382812 12.65714844 -9.96671875 12.82601562 -11 13 C-11.99 14.485 -11.99 14.485 -13 16 C-13.66 16 -14.32 16 -15 16 C-15 18.64 -15 21.28 -15 24 C-15.33 24 -15.66 24 -16 24 C-16.08121924 22.39667209 -16.13929134 20.79215974 -16.1875 19.1875 C-16.22230469 18.29417969 -16.25710937 17.40085937 -16.29296875 16.48046875 C-16 14 -16 14 -14.73828125 12.17578125 C-13 11 -13 11 -9 11 C-9 10.01 -9 9.02 -9 8 C-7.6078125 7.9690625 -7.6078125 7.9690625 -6.1875 7.9375 C-2.99303786 7.37155641 -2.99303786 7.37155641 -1.93359375 5.375 C-1.20025229 3.61781467 -0.59224075 1.80962451 0 0 Z " fill="#42B4B8" transform="translate(39,20)"/>
<path d="M0 0 C2.55390984 0.36484426 4.0891745 1.05944967 6.25 2.5 C8 5 8 5 8 14 C-0.58 14 -9.16 14 -18 14 C-16.875 6.125 -16.875 6.125 -14 2 C-13.34 2.33 -12.68 2.66 -12 3 C-12.474375 3.7425 -12.94875 4.485 -13.4375 5.25 C-15.21162303 8.08606702 -15.21162303 8.08606702 -16 12 C-8.41 12 -0.82 12 7 12 C5.1472934 5.51552692 4.68792153 4.07108975 0 0 Z " fill="#DBE1E3" transform="translate(397,32)"/>
<path d="M0 0 C4.00609065 0.57229866 6.56149315 1.93689589 10 4 C12.69254991 4.70670728 12.69254991 4.70670728 15 5 C15.33 6.32 15.66 7.64 16 9 C11.32629148 10.46053391 7.47028231 9.74154748 3 8 C0.4375 6.125 0.4375 6.125 -1 4 C-0.75 1.75 -0.75 1.75 0 0 Z " fill="#E7EFEF" transform="translate(243,57)"/>
<path d="M0 0 C0.99 0 1.98 0 3 0 C3.03738281 1.25296875 3.07476563 2.5059375 3.11328125 3.796875 C3.17894885 5.44794621 3.24539593 7.09898655 3.3125 8.75 C3.33505859 9.575 3.35761719 10.4 3.38085938 11.25 C3.58186201 15.78169586 3.76245285 18.56281857 7 22 C7 22.66 7 23.32 7 24 C4.6875 23.5 4.6875 23.5 2 22 C0.65780705 19.4309588 -0.20425705 16.78186561 -1 14 C-1.33 14 -1.66 14 -2 14 C-2 11.03 -2 8.06 -2 5 C-1.67 5 -1.34 5 -1 5 C-0.67 3.35 -0.34 1.7 0 0 Z " fill="#F1F8F5" transform="translate(10,32)"/>
<path d="M0 0 C0 1.98 0 3.96 0 6 C-4.29 6 -8.58 6 -13 6 C-13 7.98 -13 9.96 -13 12 C-13.33 12 -13.66 12 -14 12 C-14 9.03 -14 6.06 -14 3 C-9.03006806 0.56574762 -5.65394631 -0.34615998 0 0 Z " fill="#F3FEFD" transform="translate(40,33)"/>
<path d="M0 0 C0 3 0 3 -1 5.4375 C-2.65140641 11.32063532 -3.51771893 18.25718146 -0.48046875 23.74609375 C0.25236328 24.86177734 0.25236328 24.86177734 1 26 C1 26.66 1 27.32 1 28 C1.99 28 2.98 28 4 28 C3.34 26.02 2.68 24.04 2 22 C2.886875 22.78375 3.77375 23.5675 4.6875 24.375 C7.30720519 26.57156991 9.71715601 27.93790341 13 29 C10.10765685 29.82638376 8.11257569 30 5 30 C4.67 30.66 4.34 31.32 4 32 C0.33791886 29.32767052 -2.04738438 27.10780807 -4 23 C-4.28946472 20.25576092 -4.42067967 17.79566697 -4.375 15.0625 C-4.38660156 14.37220703 -4.39820313 13.68191406 -4.41015625 12.97070312 C-4.38249443 8.10683352 -3.57209425 3.57209425 0 0 Z " fill="#DCE1E4" transform="translate(379,33)"/>
<path d="M0 0 C2.57718299 0.77049801 4.61213008 1.72646937 7 3 C7 3.99 7 4.98 7 6 C1.25 5.125 1.25 5.125 -1 4 C-5.73944653 3.68341615 -10.38447404 3.80889653 -15 5 C-15 4.34 -15 3.68 -15 3 C-10.60941733 -1.21578195 -5.73535042 -0.63008075 0 0 Z " fill="#F6FCFD" transform="translate(265,16)"/>
<path d="M0 0 C17.28125 4.40625 17.28125 4.40625 21 9 C20.01 9.66 19.02 10.32 18 11 C16.329375 10.13375 16.329375 10.13375 14.625 9.25 C9.86736934 6.86265845 4.96398403 4.91235451 0 3 C0 2.01 0 1.02 0 0 Z " fill="#F4FBFC" transform="translate(250,37)"/>
<path d="M0 0 C0.33 0.99 0.66 1.98 1 3 C0.33613281 3.03738281 -0.32773437 3.07476563 -1.01171875 3.11328125 C-8.045006 3.53939596 -8.045006 3.53939596 -14 7 C-15.82629794 10.06680799 -15.82629794 10.06680799 -17 13 C-17.99 12.67 -18.98 12.34 -20 12 C-18.59967986 7.54443592 -16.56811858 5.00046335 -13 2 C-8.59019427 -0.01317218 -4.81232093 -0.19249284 0 0 Z " fill="#F1F9FA" transform="translate(397,28)"/>
<path d="M0 0 C2.0625 0.4375 2.0625 0.4375 4 1 C3.67 1.66 3.34 2.32 3 3 C1.68 3 0.36 3 -1 3 C-1.12375 3.639375 -1.2475 4.27875 -1.375 4.9375 C-1.58125 5.618125 -1.7875 6.29875 -2 7 C-2.99 7.495 -2.99 7.495 -4 8 C-4.33 8.99 -4.66 9.98 -5 11 C-6.98 11 -8.96 11 -11 11 C-11 7 -11 7 -9.375 4.875 C-6.68129057 2.74838729 -4.27577175 1.94633406 -1 1 C-0.67 0.67 -0.34 0.34 0 0 Z " fill="#4EDBD7" transform="translate(36,11)"/>
<path d="M0 0 C1.66362417 0.34820041 3.32995171 0.68404492 5 1 C5 1.66 5 2.32 5 3 C5.66 3 6.32 3 7 3 C9.21747812 5.30276574 9.96760006 6.52480092 10.1875 9.75 C10.0946875 10.86375 10.0946875 10.86375 10 12 C9.7525 11.401875 9.505 10.80375 9.25 10.1875 C7.70462524 7.48309418 6.79352635 6.43257762 4 5 C-0.28304021 4.4163076 -3.78174772 4.28687671 -7.5625 6.5 C-8.036875 6.995 -8.51125 7.49 -9 8 C-8.8125 5.1875 -8.8125 5.1875 -8 2 C-3.9389313 -1.3129771 -3.9389313 -1.3129771 0 0 Z " fill="#4CCAC9" transform="translate(50,12)"/>
<path d="M0 0 C0.66 0.66 1.32 1.32 2 2 C0.58994275 3.15395711 -0.82833458 4.29787466 -2.25 5.4375 C-3.43335938 6.39462891 -3.43335938 6.39462891 -4.640625 7.37109375 C-6.86247492 8.90505305 -8.36743482 9.57130246 -11 10 C-10.34 9.01 -9.68 8.02 -9 7 C-10.85625 7.5259375 -10.85625 7.5259375 -12.75 8.0625 C-15.903292 8.95593273 -17.86774164 9.00881294 -21 8 C-20.26394531 7.74605469 -19.52789062 7.49210937 -18.76953125 7.23046875 C-17.79371094 6.88628906 -16.81789063 6.54210937 -15.8125 6.1875 C-14.84957031 5.85105469 -13.88664062 5.51460938 -12.89453125 5.16796875 C-10.04806132 4.01939316 -7.61040589 2.60163887 -5 1 C-2.3125 0.1875 -2.3125 0.1875 0 0 Z " fill="#C9DCE0" transform="translate(77,67)"/>
<path d="M0 0 C0.98871094 -0.01417969 1.97742188 -0.02835938 2.99609375 -0.04296875 C5.5625 0.1875 5.5625 0.1875 7.5625 2.1875 C6.2425 2.1875 4.9225 2.1875 3.5625 2.1875 C3.5625 2.8475 3.5625 3.5075 3.5625 4.1875 C4.5525 4.5175 5.5425 4.8475 6.5625 5.1875 C3.5925 5.1875 0.6225 5.1875 -2.4375 5.1875 C-2.7675 6.5075 -3.0975 7.8275 -3.4375 9.1875 C-3.4375 8.1975 -3.4375 7.2075 -3.4375 6.1875 C-4.4275 6.5175 -5.4175 6.8475 -6.4375 7.1875 C-6.48004356 5.18795254 -6.47830783 3.18708364 -6.4375 1.1875 C-4.69900372 -0.55099628 -2.3588363 0.01533704 0 0 Z " fill="#F3FBFC" transform="translate(60.4375,43.8125)"/>
<path d="M0 0 C0 3 0 3 -2 5.6875 C-6.02850541 8.79280625 -8.03274907 8.42095347 -13 8 C-12.90460937 8.61488281 -12.80921875 9.22976562 -12.7109375 9.86328125 C-12.60007813 10.67152344 -12.48921875 11.47976562 -12.375 12.3125 C-12.25898437 13.11300781 -12.14296875 13.91351563 -12.0234375 14.73828125 C-12 17 -12 17 -14 20 C-14.66 20 -15.32 20 -16 20 C-15.67 15.05 -15.34 10.1 -15 5 C-13.63875 4.9175 -12.2775 4.835 -10.875 4.75 C-6.1906701 4.25418625 -3.65491766 2.90519096 0 0 Z " fill="#16556C" transform="translate(75,45)"/>
<path d="M0 0 C3.63 0 7.26 0 11 0 C11 0.33 11 0.66 11 1 C7.7 1 4.4 1 1 1 C1.103125 2.546875 1.20625 4.09375 1.3125 5.6875 C1.29088199 9.49767423 1.13086648 10.78892503 -0.9375 14.125 C-4.97273093 16.59554955 -8.36721733 16.82418418 -13 16 C-13.99 15.34 -14.98 14.68 -16 14 C-15.67 13.34 -15.34 12.68 -15 12 C-13.9275 12.33 -12.855 12.66 -11.75 13 C-8.00268399 14.1717751 -8.00268399 14.1717751 -4 14 C-3.67 13.01 -3.34 12.02 -3 11 C-2.34 11 -1.68 11 -1 11 C-0.67 7.37 -0.34 3.74 0 0 Z " fill="#BBD2D9" transform="translate(58,49)"/>
<path d="M0 0 C1.8125 1.1875 1.8125 1.1875 3 3 C3.33 4.98 3.66 6.96 4 9 C-4.415 9.495 -4.415 9.495 -13 10 C-13.33 8.35 -13.66 6.7 -14 5 C-13.01 4.34 -12.02 3.68 -11 3 C-11.33 4.65 -11.66 6.3 -12 8 C-7.38 8 -2.76 8 2 8 C0.54711014 3.4158037 0.54711014 3.4158037 -1 2 C-2.51928038 1.92820036 -4.04167482 1.91607993 -5.5625 1.9375 C-6.80193359 1.95103516 -6.80193359 1.95103516 -8.06640625 1.96484375 C-9.02353516 1.98224609 -9.02353516 1.98224609 -10 2 C-7.88538617 -2.22922765 -3.89903349 -0.97475837 0 0 Z " fill="#D9E0E2" transform="translate(174,35)"/>
<path d="M0 0 C3.63 0 7.26 0 11 0 C11.33 0.99 11.66 1.98 12 3 C10.68 3 9.36 3 8 3 C7.34 5.31 6.68 7.62 6 10 C5.34 10 4.68 10 4 10 C2.68 6.7 1.36 3.4 0 0 Z " fill="#C3E9EE" transform="translate(45,36)"/>
<path d="M0 0 C1.32 0.33 2.64 0.66 4 1 C4.33 3.64 4.66 6.28 5 9 C3.3125 10.5625 3.3125 10.5625 1 12 C-1.75 11.6875 -1.75 11.6875 -4 11 C-4 10.34 -4 9.68 -4 9 C-3.34 8.67 -2.68 8.34 -2 8 C-2.66 8 -3.32 8 -4 8 C-3.67 6.68 -3.34 5.36 -3 4 C-3 4.66 -3 5.32 -3 6 C-1.02463255 5.65213292 -1.02463255 5.65213292 1 5 C1.33 4.34 1.66 3.68 2 3 C1.34 3 0.68 3 0 3 C0 2.01 0 1.02 0 0 Z " fill="#CCD6DA" transform="translate(421,56)"/>
<path d="M0 0 C0.99 0 1.98 0 3 0 C3.66 0.99 4.32 1.98 5 3 C6.32 2.34 7.64 1.68 9 1 C7.68 2.65 6.36 4.3 5 6 C4.01 5.67 3.02 5.34 2 5 C2 4.01 2 3.02 2 2 C1.34 2 0.68 2 0 2 C-0.33 10.91 -0.66 19.82 -1 29 C-1.33 29 -1.66 29 -2 29 C-2.0580772 24.91672643 -2.09362249 20.83355917 -2.125 16.75 C-2.14175781 15.59113281 -2.15851563 14.43226562 -2.17578125 13.23828125 C-2.18222656 12.12324219 -2.18867188 11.00820313 -2.1953125 9.859375 C-2.20578613 8.83295898 -2.21625977 7.80654297 -2.22705078 6.74902344 C-1.99836111 3.98015712 -1.4243299 2.35581208 0 0 Z " fill="#E1E7E8" transform="translate(357,27)"/>
<path d="M0 0 C0.763125 -0.01224609 1.52625 -0.02449219 2.3125 -0.03710938 C6.19506322 -0.04732665 8.07178923 -0.01464051 11.375 2.1875 C11.045 2.8475 10.715 3.5075 10.375 4.1875 C9.59898438 4.02378906 8.82296875 3.86007812 8.0234375 3.69140625 C3.3257922 3.042588 -1.26513661 3.08109613 -6 3.125 C-7.39025391 3.13176758 -7.39025391 3.13176758 -8.80859375 3.13867188 C-11.08079709 3.15038426 -13.35286388 3.16678628 -15.625 3.1875 C-11.57750249 -0.85999751 -5.40502187 0.00461179 0 0 Z " fill="#51C3C0" transform="translate(50.625,5.8125)"/>
<path d="M0 0 C3.63 0 7.26 0 11 0 C11 0.33 11 0.66 11 1 C8.69 1 6.38 1 4 1 C4.66 4.63 5.32 8.26 6 12 C5.01 12 4.02 12 3 12 C-1.125 5.625 -1.125 5.625 0 0 Z " fill="#EFF4F6" transform="translate(377,49)"/>
<path d="M0 0 C-2.57845086 3.15143994 -5.07039756 4.07118488 -9 5 C-14.07311242 5.32519951 -19.05869201 5.31768213 -24 4 C-24 3.67 -24 3.34 -24 3 C-23.23816406 2.96261719 -22.47632813 2.92523438 -21.69140625 2.88671875 C-15.66295515 2.50288478 -10.45238184 1.80189803 -4.83984375 -0.4765625 C-3 -1 -3 -1 0 0 Z " fill="#DDEBEC" transform="translate(69,74)"/>
<path d="M0 0 C0.33 0 0.66 0 1 0 C1.12117188 0.78246094 1.24234375 1.56492188 1.3671875 2.37109375 C1.53476562 3.38300781 1.70234375 4.39492188 1.875 5.4375 C2.03742187 6.44683594 2.19984375 7.45617188 2.3671875 8.49609375 C2.57601563 9.32238281 2.78484375 10.14867187 3 11 C3.66 11.33 4.32 11.66 5 12 C5 15.3 5 18.6 5 22 C1.83249097 19.88832732 1.26049615 18.92765034 0.33984375 15.3515625 C-0.39399042 10.27376741 -0.13847951 5.11604857 0 0 Z " fill="#3DA8B0" transform="translate(15,36)"/>
<path d="M0 0 C2.8203125 0.0234375 2.8203125 0.0234375 6.125 0.375 C7.22070312 0.48585937 8.31640625 0.59671875 9.4453125 0.7109375 C10.28835937 0.80632813 11.13140625 0.90171875 12 1 C11.34 2.32 10.68 3.64 10 5 C6.37 5 2.74 5 -1 5 C-1.33 4.01 -1.66 3.02 -2 2 C-1.34 1.34 -0.68 0.68 0 0 Z " fill="#F5FDFB" transform="translate(32,43)"/>
<path d="M0 0 C1 3 1 3 -0.1875 6.5 C-1.89229551 9.79201892 -2.81104124 11.25121617 -6 13 C-6.66 13 -7.32 13 -8 13 C-7.45660208 8.43545749 -6.20536179 5.0271824 -4 1 C-3.34 1.66 -2.68 2.32 -2 3 C-1.34 2.01 -0.68 1.02 0 0 Z " fill="#DEEBEB" transform="translate(86,53)"/>
<path d="M0 0 C-1 3 -1 3 -4 4.6875 C-8.30110524 6.40436529 -12.43709444 6.27936157 -17 6 C-17 5.01 -17 4.02 -17 3 C-16.11248047 2.92652344 -16.11248047 2.92652344 -15.20703125 2.8515625 C-9.99573257 2.35848693 -5.04141395 0 0 0 Z " fill="#F4FBFC" transform="translate(408,61)"/>
<path d="M0 0 C0.66 0.33 1.32 0.66 2 1 C2 1.66 2 2.32 2 3 C2.73605469 3.19335938 3.47210938 3.38671875 4.23046875 3.5859375 C5.20628906 3.84632812 6.18210938 4.10671875 7.1875 4.375 C8.15042969 4.63023438 9.11335938 4.88546875 10.10546875 5.1484375 C12.82210207 5.94766296 15.39137175 6.9031362 18 8 C14.21604422 9.43467518 12.03225508 8.49839022 8.375 7 C6.60467077 6.27857897 4.81529871 5.59933672 3 5 C2.01 5.495 2.01 5.495 1 6 C2.98 6.99 4.96 7.98 7 9 C6.01 9.33 5.02 9.66 4 10 C-1.63380282 6.73239437 -1.63380282 6.73239437 -3 4 C-2.34 3.67 -1.68 3.34 -1 3 C-0.67 2.01 -0.34 1.02 0 0 Z " fill="#E0E5E7" transform="translate(249,33)"/>
<path d="M0 0 C2.85563711 1.29242197 4.79949524 2.66303428 7 4.875 C11.60145286 8.98308046 17.15961057 10.36967783 23 12 C19.34375 14.0625 19.34375 14.0625 16.25 13.5 C9.47217041 10.37177096 4.49288656 5.89691361 0 0 Z " fill="#C3CBCE" transform="translate(18,66)"/>
<path d="M0 0 C0.66 0.33 1.32 0.66 2 1 C1 3 1 3 -1.25 4.3125 C-5.4064417 6.86304377 -8.30563971 9.95845956 -11 14 C-11.66 14 -12.32 14 -13 14 C-13.33 15.32 -13.66 16.64 -14 18 C-14.33 17.01 -14.66 16.02 -15 15 C-11.89176518 8.92481376 -6.12033237 3.06016619 0 0 Z " fill="#5BC8C3" transform="translate(33,9)"/>
<path d="M0 0 C0.74628662 0.00128906 1.49257324 0.00257812 2.26147461 0.00390625 C7.60233361 0.0974312 11.75440068 0.85730035 16.5625 3.3125 C14.5825 4.3025 14.5825 4.3025 12.5625 5.3125 C12.5625 4.6525 12.5625 3.9925 12.5625 3.3125 C2.33132431 1.73847297 -7.36321719 1.81621753 -17.4375 4.3125 C-12.90942494 -0.21557506 -6.05210584 -0.04335028 0 0 Z " fill="#E8EFEE" transform="translate(50.4375,-0.3125)"/>
<path d="M0 0 C-0.75 4.75 -0.75 4.75 -3 7 C-5.93453261 6.63318342 -6.86437246 6.13562754 -9 4 C-9 3.01 -9 2.02 -9 1 C-5.846632 0.29925156 -3.27275026 0 0 0 Z " fill="#E3F4F7" transform="translate(71,54)"/>
<path d="M0 0 C0.78503906 0.00386719 1.57007813 0.00773438 2.37890625 0.01171875 C4.4375 0.3125 4.4375 0.3125 6.4375 2.3125 C3.4375 3.3125 3.4375 3.3125 1 3.25 C-1.87470013 3.32011464 -3.19617491 3.70065538 -5.5625 5.3125 C-6.2618514 7.49791552 -6.2618514 7.49791552 -6.3125 9.9375 C-6.36921875 10.75476562 -6.4259375 11.57203125 -6.484375 12.4140625 C-6.51015625 13.04054688 -6.5359375 13.66703125 -6.5625 14.3125 C-6.8925 14.3125 -7.2225 14.3125 -7.5625 14.3125 C-7.64364106 12.54242286 -7.70175505 10.77127902 -7.75 9 C-7.78480469 8.01386719 -7.81960937 7.02773438 -7.85546875 6.01171875 C-7.5625 3.3125 -7.5625 3.3125 -6.3359375 1.4765625 C-4.08270856 -0.00242918 -2.67925447 -0.05738107 0 0 Z " fill="#D7FBFB" transform="translate(49.5625,15.6875)"/>
<path d="M0 0 C4.29 0.66 8.58 1.32 13 2 C12.67 3.65 12.34 5.3 12 7 C7.545 6.01 7.545 6.01 3 5 C3 4.34 3 3.68 3 3 C2.01 2.67 1.02 2.34 0 2 C0 1.34 0 0.68 0 0 Z " fill="#17697D" transform="translate(27,48)"/>
<path d="M0 0 C3.96 0 7.92 0 12 0 C12.66 2.31 13.32 4.62 14 7 C12.35 7 10.7 7 9 7 C9 10.63 9 14.26 9 18 C8.67 18 8.34 18 8 18 C7.91839252 16.10489301 7.86053541 14.20875496 7.8125 12.3125 C7.77769531 11.25675781 7.74289063 10.20101562 7.70703125 9.11328125 C8.03333385 5.64577232 9.00969875 3.81567552 11 1 C7.37 1 3.74 1 0 1 C0 0.67 0 0.34 0 0 Z " fill="#C3E3E7" transform="translate(33,43)"/>
<path d="M0 0 C0 0.99 0 1.98 0 3 C0.66 3 1.32 3 2 3 C1.67 3.99 1.34 4.98 1 6 C-0.32 6 -1.64 6 -3 6 C-3.33 5.34 -3.66 4.68 -4 4 C-4.33 5.65 -4.66 7.3 -5 9 C-5.99 8.67 -6.98 8.34 -8 8 C-7.67 7.01 -7.34 6.02 -7 5 C-6.87625 4.29875 -6.7525 3.5975 -6.625 2.875 C-6.41875 2.25625 -6.2125 1.6375 -6 1 C-3 0 -3 0 0 0 Z " fill="#CDDEE5" transform="translate(421,56)"/>
<path d="M0 0 C1.4606285 2.64738916 2 3.89448334 2 7 C1.01 7.33 0.02 7.66 -1 8 C-1.33 7.01 -1.66 6.02 -2 5 C-2.99 5 -3.98 5 -5 5 C-5 4.34 -5 3.68 -5 3 C-5.66 3 -6.32 3 -7 3 C-7 2.34 -7 1.68 -7 1 C-4.50935112 0.31292445 -2.62113708 0 0 0 Z " fill="#F8FCF8" transform="translate(71,35)"/>
<path d="M0 0 C0.66 0 1.32 0 2 0 C2 3.96 2 7.92 2 12 C-0.97 12 -3.94 12 -7 12 C-7 11.67 -7 11.34 -7 11 C-4.36 11 -1.72 11 1 11 C0.67 10.34 0.34 9.68 0 9 C-1.65 9 -3.3 9 -5 9 C-4.54625 8.2575 -4.0925 7.515 -3.625 6.75 C-2.31359204 4.53069422 -1.11719197 2.32032178 0 0 Z " fill="#58C0C4" transform="translate(39,20)"/>
<path d="M0 0 C0 3 0 3 -1.5390625 4.71875 C-7.86851257 10.12367366 -12.33263464 13.52004192 -21 13 C-18.29659867 11.19773244 -16.8959775 10.64377922 -13.875 9.875 C-8.06553409 8.0529836 -4.24332753 4.22326451 0 0 Z " fill="#BCC5C8" transform="translate(81,66)"/>
<path d="M0 0 C0.99 0 1.98 0 3 0 C3.6875 2.3125 3.6875 2.3125 4 5 C2.875 6.875 2.875 6.875 1 8 C-1.6875 7.6875 -1.6875 7.6875 -4 7 C-4 6.01 -4 5.02 -4 4 C-3.34 4 -2.68 4 -2 4 C-1.67 3.34 -1.34 2.68 -1 2 C-0.67 2 -0.34 2 0 2 C0 1.34 0 0.68 0 0 Z " fill="#F0F6F5" transform="translate(235,59)"/>
<path d="M0 0 C0.33 0 0.66 0 1 0 C1.06058594 1.02480469 1.12117187 2.04960938 1.18359375 3.10546875 C1.26805026 4.46615695 1.35269567 5.82683343 1.4375 7.1875 C1.47681641 7.86103516 1.51613281 8.53457031 1.55664062 9.22851562 C1.78927565 12.89699102 2.17207011 16.41694206 3 20 C1 18.6875 1 18.6875 -1 16 C-1.64434163 10.56075252 -1.1896795 5.32937727 0 0 Z " fill="#B9EAEB" transform="translate(14,34)"/>
<path d="M0 0 C0.78375 0.04125 1.5675 0.0825 2.375 0.125 C1.055 0.455 -0.265 0.785 -1.625 1.125 C-1.625 1.785 -1.625 2.445 -1.625 3.125 C-0.635 3.455 0.355 3.785 1.375 4.125 C1.045 4.785 0.715 5.445 0.375 6.125 C-0.945 5.795 -2.265 5.465 -3.625 5.125 C-3.955 6.115 -4.285 7.105 -4.625 8.125 C-7.595 8.125 -10.565 8.125 -13.625 8.125 C-13.625 7.795 -13.625 7.465 -13.625 7.125 C-10.985 7.125 -8.345 7.125 -5.625 7.125 C-5.50125 6.34125 -5.3775 5.5575 -5.25 4.75 C-4.40872422 1.21664174 -3.69833563 0.17611122 0 0 Z " fill="#69A4AF" transform="translate(45.625,31.875)"/>
<path d="M0 0 C1.98 0 3.96 0 6 0 C6 0.66 6 1.32 6 2 C5.34 2 4.68 2 4 2 C3.67 3.98 3.34 5.96 3 8 C1.68 8 0.36 8 -1 8 C-0.67 5.36 -0.34 2.72 0 0 Z " fill="#166487" transform="translate(73,56)"/>
<path d="M0 0 C1.67542976 0.28604898 3.34385343 0.61781233 5 1 C5 1.66 5 2.32 5 3 C5.66 3.33 6.32 3.66 7 4 C3.25 7 3.25 7 1 7 C0.34 5.02 -0.32 3.04 -1 1 C-0.67 0.67 -0.34 0.34 0 0 Z " fill="#F4F8F6" transform="translate(177,58)"/>
<path d="M0 0 C1.485 0.99 1.485 0.99 3 2 C3.29296875 4.8203125 3.29296875 4.8203125 3.1875 8.125 C3.16042969 9.22070312 3.13335937 10.31640625 3.10546875 11.4453125 C3.07066406 12.28835937 3.03585938 13.13140625 3 14 C6.63 14 10.26 14 14 14 C14 14.33 14 14.66 14 15 C12.04310341 15.22142255 10.08438048 15.4267568 8.125 15.625 C7.03445312 15.74101563 5.94390625 15.85703125 4.8203125 15.9765625 C3.42425781 15.98816406 3.42425781 15.98816406 2 16 C1.34 15.34 0.68 14.68 0 14 C0.66 14 1.32 14 2 14 C1.85866501 12.22880197 1.71176792 10.45804713 1.5625 8.6875 C1.48128906 7.70136719 1.40007813 6.71523438 1.31640625 5.69921875 C1.08187441 2.90624401 1.08187441 2.90624401 0 0 Z " fill="#BFECF1" transform="translate(56,18)"/>
<path d="M0 0 C-0.33 2.64 -0.66 5.28 -1 8 C-2.65 8.33 -4.3 8.66 -6 9 C-5.63668534 5.73016809 -4.2451062 0 0 0 Z " fill="#14526B" transform="translate(73,56)"/>
<path d="M0 0 C4.83256305 0.41421969 6.82679218 2.46413986 10 6 C9.01 6.495 9.01 6.495 8 7 C8 8.65 8 10.3 8 12 C7.67 12 7.34 12 7 12 C6.6596875 10.4221875 6.6596875 10.4221875 6.3125 8.8125 C5.20639469 4.8402094 3.11370115 2.70400363 0 0 Z " fill="#349BAA" transform="translate(68,30)"/>
<path d="M0 0 C0.66 0 1.32 0 2 0 C2.33 1.32 2.66 2.64 3 4 C3.99 4 4.98 4 6 4 C5.67 5.65 5.34 7.3 5 9 C4.01 9 3.02 9 2 9 C0.14223235 5.86501708 -0.20140476 3.62528568 0 0 Z " fill="#206274" transform="translate(46,43)"/>
<path d="M0 0 C3.875 1.875 3.875 1.875 5 3 C5.14115161 5.67058851 5.04247107 8.32432238 5 11 C4.01 11.495 4.01 11.495 3 12 C2 8 1 4 0 0 Z " fill="#CFEEF3" transform="translate(70,33)"/>
<path d="M0 0 C0.66 0.33 1.32 0.66 2 1 C1.67 1.66 1.34 2.32 1 3 C0.01 3 -0.98 3 -2 3 C-2 3.66 -2 4.32 -2 5 C-4.8125 5.1875 -4.8125 5.1875 -8 5 C-8.99 4.01 -9.98 3.02 -11 2 C-7.37 2 -3.74 2 0 2 C0 1.34 0 0.68 0 0 Z " fill="#124E68" transform="translate(56,64)"/>
<path d="M0 0 C0.66 0.66 1.32 1.32 2 2 C0.29171079 4.10633718 -0.52148416 4.93801608 -3.26171875 5.29296875 C-4.06222656 5.25816406 -4.86273438 5.22335938 -5.6875 5.1875 C-6.49574219 5.16042969 -7.30398438 5.13335937 -8.13671875 5.10546875 C-8.75160156 5.07066406 -9.36648438 5.03585938 -10 5 C-10 4.67 -10 4.34 -10 4 C-8.02 3.67 -6.04 3.34 -4 3 C-4.99 2.34 -5.98 1.68 -7 1 C-3.625 0.375 -3.625 0.375 0 0 Z " fill="#E6EDED" transform="translate(336,63)"/>
<path d="M0 0 C0.99 0.66 1.98 1.32 3 2 C3 3.32 3 4.64 3 6 C4.98 6 6.96 6 9 6 C9 6.33 9 6.66 9 7 C4.71 7 0.42 7 -4 7 C-2.68 6.67 -1.36 6.34 0 6 C0 4.02 0 2.04 0 0 Z " fill="#5A939F" transform="translate(57,33)"/>
<path d="M0 0 C0.66 0.66 1.32 1.32 2 2 C1.89834392 5.76127491 1.00920966 6.98989184 -1.5625 9.8125 C-2.366875 10.534375 -3.17125 11.25625 -4 12 C-3.67 10.02 -3.34 8.04 -3 6 C-2.34 6 -1.68 6 -1 6 C-0.67 4.02 -0.34 2.04 0 0 Z " fill="#37768C" transform="translate(80,52)"/>
<path d="M0 0 C0.33 0 0.66 0 1 0 C1.125 3.375 1.125 3.375 1 7 C-1 9 -1 9 -4.125 9.125 C-5.548125 9.063125 -5.548125 9.063125 -7 9 C-6.21625 8.443125 -5.4325 7.88625 -4.625 7.3125 C-1.91295142 4.92331435 -1.03866457 3.39926587 0 0 Z " fill="#EFF4F6" transform="translate(113,58)"/>
<path d="M0 0 C0.66 0.33 1.32 0.66 2 1 C1.38511719 1.47050781 0.77023438 1.94101563 0.13671875 2.42578125 C-0.67152344 3.04839844 -1.47976562 3.67101562 -2.3125 4.3125 C-3.11300781 4.92738281 -3.91351563 5.54226562 -4.73828125 6.17578125 C-6.62701374 7.69916307 -8.33077636 9.24434407 -10 11 C-10.66 10.67 -11.32 10.34 -12 10 C-8.87562143 5.44361459 -5.02279976 2.2830908 0 0 Z " fill="#E4ECEA" transform="translate(29,5)"/>
<path d="M0 0 C-0.66 1.32 -1.32 2.64 -2 4 C-4.31 3.67 -6.62 3.34 -9 3 C-9 2.34 -9 1.68 -9 1 C-5.846632 0.29925156 -3.27275026 0 0 0 Z " fill="#E7F3F1" transform="translate(73,45)"/>
<path d="M0 0 C2 3.75 2 3.75 2 6 C3.32 6.66 4.64 7.32 6 8 C3.69 8 1.38 8 -1 8 C-1.04241723 5.66705225 -1.04092937 3.33297433 -1 1 C-0.67 0.67 -0.34 0.34 0 0 Z " fill="#379BA6" transform="translate(60,23)"/>
<path d="M0 0 C1.258125 -0.020625 2.51625 -0.04125 3.8125 -0.0625 C4.52019531 -0.07410156 5.22789063 -0.08570312 5.95703125 -0.09765625 C8 0 8 0 11 1 C11 1.66 11 2.32 11 3 C7.37 2.67 3.74 2.34 0 2 C0 1.34 0 0.68 0 0 Z " fill="#F9FEFC" transform="translate(52,2)"/>
<path d="M0 0 C0.33 0 0.66 0 1 0 C1.05418326 2.08304538 1.09287551 4.16649768 1.125 6.25 C1.14820313 7.41015625 1.17140625 8.5703125 1.1953125 9.765625 C1.0103949 12.82786046 0.60823023 14.44202751 -1 17 C-1.66 15.68 -2.32 14.36 -3 13 C-2.34 12.01 -1.68 11.02 -1 10 C-0.54398739 7.49103314 -0.54398739 7.49103314 -0.375 4.8125 C-0.30023438 3.91144531 -0.22546875 3.01039062 -0.1484375 2.08203125 C-0.09945312 1.39496094 -0.05046875 0.70789062 0 0 Z " fill="#2D6178" transform="translate(59,50)"/>
<path d="M0 0 C1.32 0.33 2.64 0.66 4 1 C4 3.31 4 5.62 4 8 C3.01 8.495 3.01 8.495 2 9 C0.875 5.25 0.875 5.25 2 3 C1.34 3 0.68 3 0 3 C0 2.01 0 1.02 0 0 Z " fill="#B7C5CB" transform="translate(421,56)"/>
<path d="M0 0 C1.32 0 2.64 0 4 0 C4 0.99 4 1.98 4 3 C-0.22222222 6 -0.22222222 6 -3 6 C-1.125 1.125 -1.125 1.125 0 0 Z " fill="#84FAFB" transform="translate(30,15)"/>
<path d="M0 0 C3.3 0.33 6.6 0.66 10 1 C6.23312136 2.88343932 4.97041037 3.22057835 1 3 C0.67 3.99 0.34 4.98 0 6 C0 4.02 0 2.04 0 0 Z " fill="#33738A" transform="translate(61,52)"/>
<path d="M0 0 C0.33 0.66 0.66 1.32 1 2 C1.99 2.33 2.98 2.66 4 3 C1.69 4.65 -0.62 6.3 -3 8 C-2.25 2.25 -2.25 2.25 0 0 Z " fill="#E3FBFB" transform="translate(24,11)"/>
<path d="M0 0 C2.1640625 -0.29296875 2.1640625 -0.29296875 4.625 -0.1875 C5.44226562 -0.16042969 6.25953125 -0.13335937 7.1015625 -0.10546875 C8.04128906 -0.05326172 8.04128906 -0.05326172 9 0 C6.60236815 2.39763185 5.66726502 2.34280586 2.375 2.625 C1.55773438 2.69976562 0.74046875 2.77453125 -0.1015625 2.8515625 C-0.72804687 2.90054687 -1.35453125 2.94953125 -2 3 C-1.34 2.01 -0.68 1.02 0 0 Z " fill="#FBFDFD" transform="translate(39,2)"/>
<path d="M0 0 C0.33 0 0.66 0 1 0 C1.39063507 1.43333021 1.76198474 2.87192679 2.125 4.3125 C2.33382812 5.11300781 2.54265625 5.91351563 2.7578125 6.73828125 C3 9 3 9 1 12 C0.34 12 -0.32 12 -1 12 C-0.67 8.04 -0.34 4.08 0 0 Z " fill="#125D7A" transform="translate(60,53)"/>
<path d="M0 0 C2.64 0 5.28 0 8 0 C8 0.66 8 1.32 8 2 C8.66 2 9.32 2 10 2 C9.67 2.99 9.34 3.98 9 5 C8.46375 4.484375 7.9275 3.96875 7.375 3.4375 C4.99503501 1.67394455 4.99503501 1.67394455 1.75 2.3125 C0.8425 2.539375 -0.065 2.76625 -1 3 C-0.67 2.01 -0.34 1.02 0 0 Z " fill="#E4E8E9" transform="translate(137,13)"/>
<path d="M0 0 C1.9375 0.3125 1.9375 0.3125 4 1 C4.33 1.99 4.66 2.98 5 4 C4.34 4.66 3.68 5.32 3 6 C2.01 5.67 1.02 5.34 0 5 C0 3.35 0 1.7 0 0 Z " fill="#42AAB3" transform="translate(75,18)"/>
<path d="M0 0 C3.94139078 1.66751148 6.7892812 4.22710649 10 7 C9.34 7.66 8.68 8.32 8 9 C6.66368764 7.6905332 5.33102075 6.37734515 4 5.0625 C3.2575 4.33160156 2.515 3.60070312 1.75 2.84765625 C0 1 0 1 0 0 Z " fill="#CCD0D1" transform="translate(18,66)"/>
<path d="M0 0 C1.32 0.66 2.64 1.32 4 2 C4 2.99 4 3.98 4 5 C2.68 5.33 1.36 5.66 0 6 C0 4 0 2 0 0 Z " fill="#135E7E" transform="translate(65,64)"/>
<path d="M0 0 C1.65 1.65 3.3 3.3 5 5 C4.67 5.66 4.34 6.32 4 7 C2.68 6.67 1.36 6.34 0 6 C0 4.02 0 2.04 0 0 Z " fill="#C2E8E9" transform="translate(17,56)"/>
<path d="M0 0 C-0.33 1.32 -0.66 2.64 -1 4 C-1.33 3.67 -1.66 3.34 -2 3 C-5.63194641 2.80850919 -5.63194641 2.80850919 -9 4 C-9 3.01 -9 2.02 -9 1 C-5.846632 0.29925156 -3.27275026 0 0 0 Z " fill="#BEE4EC" transform="translate(71,54)"/>
<path d="M0 0 C1.98 0 3.96 0 6 0 C4 3 4 3 0.875 3.6875 C-0.07375 3.790625 -1.0225 3.89375 -2 4 C-1.34 2.68 -0.68 1.36 0 0 Z " fill="#C6F4F2" transform="translate(28,32)"/>
<path d="M0 0 C0.556875 0.226875 1.11375 0.45375 1.6875 0.6875 C1.3575 1.3475 1.0275 2.0075 0.6875 2.6875 C-0.6325 2.6875 -1.9525 2.6875 -3.3125 2.6875 C-3.6425 3.6775 -3.9725 4.6675 -4.3125 5.6875 C-4.3125 5.0275 -4.3125 4.3675 -4.3125 3.6875 C-5.3025 3.3575 -6.2925 3.0275 -7.3125 2.6875 C-2.88173077 -0.38942308 -2.88173077 -0.38942308 0 0 Z " fill="#41E9E5" transform="translate(38.3125,11.3125)"/>
<path d="M0 0 C2.31 0.33 4.62 0.66 7 1 C7.33 1.99 7.66 2.98 8 4 C8.66 4 9.32 4 10 4 C9.67 4.66 9.34 5.32 9 6 C6.03 4.35 3.06 2.7 0 1 C0 0.67 0 0.34 0 0 Z " fill="#C9F2F3" transform="translate(64,8)"/>
<path d="M0 0 C2.31 0.33 4.62 0.66 7 1 C7 1.66 7 2.32 7 3 C4.69 3 2.38 3 0 3 C0 2.01 0 1.02 0 0 Z " fill="#EDF1F2" transform="translate(139,64)"/>
<path d="M0 0 C0.33 0.66 0.66 1.32 1 2 C0.06421005 4.35981813 -0.93347808 6.69631264 -2 9 C-2.66 7.68 -3.32 6.36 -4 5 C-2.68 3.35 -1.36 1.7 0 0 Z " fill="#146883" transform="translate(74,48)"/>
<path d="M0 0 C-0.78375 0.268125 -1.5675 0.53625 -2.375 0.8125 C-5.28114923 1.84814432 -5.28114923 1.84814432 -7 5 C-7.66 3.68 -8.32 2.36 -9 1 C-5.57367167 -0.61798838 -3.61944899 -1.34053666 0 0 Z " fill="#E2E7E9" transform="translate(327,29)"/>
<path d="M0 0 C1.32 0.33 2.64 0.66 4 1 C1.75 3.0625 1.75 3.0625 -1 5 C-3.3125 4.75 -3.3125 4.75 -5 4 C-4.0409375 3.8453125 -4.0409375 3.8453125 -3.0625 3.6875 C-2.381875 3.460625 -1.70125 3.23375 -1 3 C-0.67 2.01 -0.34 1.02 0 0 Z " fill="#37D1CA" transform="translate(35,9)"/>
<path d="M0 0 C1.65 0 3.3 0 5 0 C5 0.99 5 1.98 5 3 C2.69 3 0.38 3 -2 3 C-1.34 2.67 -0.68 2.34 0 2 C0 1.34 0 0.68 0 0 Z " fill="#E1EEF2" transform="translate(418,53)"/>
<path d="M0 0 C3.3 0 6.6 0 10 0 C10 0.99 10 1.98 10 3 C6.7 2.34 3.4 1.68 0 1 C0 0.67 0 0.34 0 0 Z " fill="#D7FBFC" transform="translate(54,5)"/>
</svg>
